<svg width="1600" height="933" viewBox="0 0 1600 933" fill="none" xmlns="http://www.w3.org/2000/svg">
<g clip-path="url(#clip0_2641_3)">
<g clip-path="url(#clip1_2641_3)">
<path d="M-20.4219 313.667C-20.4219 313.667 -3.9446 313.216 19.1237 305.37C42.192 297.524 65.3602 279.517 27.0129 276.244C-10.9349 273.027 -20.322 273.139 -20.322 273.139" stroke="#C2B69C" stroke-opacity="0.36" stroke-miterlimit="10" stroke-linecap="round"/>
<path d="M1576.88 436.944C1573.99 438.468 1571.49 440.387 1569.19 442.758C1558.8 453.709 1544.63 457.885 1521.06 457.378C1498.99 456.926 1493.6 448.29 1477.22 442.194C1459.04 435.42 1434.18 436.718 1417.7 444.282C1391.74 456.248 1373.36 472.054 1345.99 482.891C1327.13 490.342 1309.45 496.833 1294.57 506.88C1281.69 515.573 1269.4 524.717 1255.82 533.015C1231.35 547.916 1181.32 569.253 1145.67 553.222C1115.62 539.731 1092.15 522.177 1070.68 504.679C1060.29 496.212 1043.91 489.89 1025.34 489.608C1019.25 489.495 1013.36 491.414 1006.87 491.188C997.178 490.85 990.089 488.027 979.802 488.761C956.934 490.398 955.437 501.574 945.05 511.114C936.462 519.016 919.985 522.911 903.508 521.726C891.924 520.879 883.136 518.057 869.655 518.903C850.38 520.145 833.603 525.225 814.929 527.539C793.259 530.249 771.489 526.467 749.42 526.919C727.051 527.37 706.579 529.628 686.406 535.385C667.133 540.861 648.559 546.675 626.588 547.747C605.817 548.819 579.853 544.53 559.88 548.65C544.202 551.924 536.213 562.536 529.223 570.438C518.337 582.856 508.851 595.726 497.266 607.974C486.582 619.263 437.748 645.567 415.379 632.867C393.909 620.731 405.293 583.759 416.777 570.099C423.567 561.971 443.74 551.698 440.644 541.877C438.646 535.554 428.161 533.635 419.273 530.588C407.489 526.523 400.2 522.064 392.011 515.855C379.828 506.654 369.641 496.043 362.252 485.318C354.363 473.916 355.96 464.32 329.996 463.812C310.723 463.417 293.048 472.109 274.372 470.36C254.201 468.44 248.709 455.346 252.103 445.975C255.599 436.605 262.589 428.251 263.887 418.374C265.486 406.407 259.094 398.166 252.503 386.933C245.612 375.192 243.715 364.919 241.418 352.84C238.722 338.56 221.746 331.108 209.162 319.65C198.378 309.885 187.293 295.435 191.188 281.211C192.486 276.582 190.788 257.052 184.796 251.971C182.599 250.109 179.903 248.528 177.506 246.779C175.309 245.142 173.511 243.336 170.915 241.812C168.318 240.288 165.023 238.369 161.229 238.369C157.734 238.312 154.238 238.369 150.743 238.369C145.55 238.369 140.457 239.046 135.264 238.707C127.275 238.143 119.287 237.127 111.297 236.506C105.305 235.998 99.4133 235.377 93.5215 234.586C84.9333 233.401 76.3451 233.175 67.5572 232.442C53.2769 231.256 37.7981 227.926 25.6148 223.41C19.2236 221.04 14.0308 217.427 8.63818 214.379C5.44254 212.629 -11.7338 195.978 -20.8213 193.438" stroke="#C2B69C" stroke-opacity="0.36" stroke-miterlimit="10" stroke-linecap="round"/>
<path d="M1576.68 936.095C1567.99 931.523 1546.52 924.014 1540.23 917.97C1534.04 911.934 1533.84 904.145 1531.54 897.373C1527.55 885.631 1524.26 867.905 1511.48 857.915C1506.88 854.359 1497.29 851.253 1491.7 848.153C1480.81 841.999 1472.13 835.278 1463.54 828.056C1451.96 818.346 1439.67 810.955 1424.59 803.16C1407.01 794.075 1391.84 783.747 1374.66 774.094C1357.58 764.498 1339.91 756.144 1325.03 745.363C1308.95 733.792 1295.36 733.001 1272.8 727.639C1259.12 724.422 1244.13 716.97 1232.65 711.552C1216.38 703.876 1219.08 693.094 1236.45 686.885C1254.12 680.507 1266.31 674.298 1281.78 666.113C1302.46 655.106 1328.63 646.921 1352.29 638.173C1391.24 623.836 1430.69 612.039 1458.44 590.081C1482.71 570.946 1509.47 551.359 1530.25 530.926C1538.03 523.306 1541.13 514.331 1543.63 505.751C1548.02 490.737 1541.04 493.559 1517.67 492.373C1497.09 491.301 1483.91 482.834 1464.43 479.73C1440.37 475.948 1429.78 482.721 1407.61 486.165C1383.05 490.003 1386.14 490.85 1376.86 503.945C1368.96 514.952 1355.39 522.685 1340.11 530.7C1323.63 539.337 1320.94 549.384 1311.74 560.391C1303.06 570.72 1288.57 581.671 1274.4 589.911C1237.94 611.191 1198.8 611.813 1153.07 600.58C1133.89 595.895 1128.5 586.243 1117.51 576.76C1104.73 565.696 1094.35 555.254 1084.76 543.175C1077.67 534.2 1067.78 518.734 1050.81 514.387C1035.33 510.436 1026.64 516.25 1012.06 518.96C996.18 521.951 979.004 518.734 963.426 522.685C940.158 528.556 934.865 544.134 912.994 550.738C898.614 555.084 881.638 553.222 866.059 556.383C845.088 560.617 833.504 569.196 810.535 571.736C765.298 576.76 717.764 568.519 671.826 569.817C653.751 570.325 635.776 571.567 624.292 579.187C617.501 583.702 619.898 584.38 610.111 586.638C598.227 589.347 592.935 588.613 585.346 595.387C573.862 605.547 577.856 615.482 575.259 626.771C572.363 639.414 556.685 650.308 537.81 657.082C497.566 671.476 447.735 665.944 405.293 658.154C389.714 655.275 370.142 651.437 362.552 642.293C353.863 631.794 366.646 621.013 370.64 611.135C375.434 599.394 366.047 584.606 359.755 573.373C356.66 567.841 354.363 565.809 348.571 561.802C339.483 555.48 334.291 552.996 328.199 545.319C319.511 534.312 302.834 525.225 280.465 525.281C265.885 525.338 246.312 526.128 235.327 525.281C216.852 523.87 200.675 522.967 187.292 514.669C174.711 506.823 177.906 494.123 180.203 484.246C182.6 473.803 194.583 466.182 200.175 456.587C206.766 445.354 208.164 431.469 211.46 419.728C214.555 408.721 216.154 397.319 207.166 387.046C197.679 376.095 187.093 368.193 180.502 356.057C174.51 344.825 168.019 338.841 147.748 335.003C129.172 331.503 109.1 330.318 94.021 322.868C80.4397 316.094 63.7627 310.675 62.2646 300.064C61.965 298.088 60.7668 293.742 64.6615 292.556C69.7545 291.032 72.251 293.572 75.3468 295.265C79.2414 297.467 81.738 298.822 87.3303 299.781C95.1196 301.192 98.2148 303.733 104.307 306.385C111.298 309.489 120.085 310.393 128.674 310.957C142.554 311.804 156.835 313.554 169.418 317.11C169.418 317.11 172.613 317.843 174.51 318.747C176.407 319.65 179.803 321.626 179.803 321.626L185.395 324.73C185.395 324.73 189.29 326.931 190.089 328.399" stroke="#C2B69C" stroke-opacity="0.36" stroke-miterlimit="10" stroke-linecap="round"/>
<path d="M1517.47 942.529C1512.17 935.528 1510.88 923.168 1505.38 916.226C1500.19 909.733 1491.4 904.315 1484.51 898.44C1474.72 890.092 1473.72 881.906 1468.94 872.646C1460.94 857.068 1433.28 853.343 1414.9 842.507C1394.03 830.199 1379.26 820.04 1353.59 810.897C1333.21 803.616 1319.44 796.505 1307.36 784.874C1294.17 772.174 1274.8 762.014 1250.93 755.862C1225.36 749.314 1197.7 750.781 1170.54 750.33C1148.87 749.992 1152.27 745.815 1155.16 733.058C1158.46 718.551 1172.54 708.617 1184.43 696.142C1190.62 689.594 1196.2 682.144 1204.29 676.274C1204.29 676.274 1229.45 659.34 1237.85 649.913C1246.14 640.487 1293.97 631.06 1312.14 625.36C1330.32 619.602 1425.49 577.381 1425.49 577.381C1425.49 577.381 1462.73 522.571 1456.25 511.227C1449.75 499.824 1430.38 502.477 1425.69 518.677C1421.1 534.877 1431.29 538.038 1398.83 552.149C1366.47 566.261 1342.21 555.819 1334.91 572.018C1327.62 588.218 1334.12 595.387 1321.14 601.483C1308.15 607.579 1222.47 634.955 1191.81 636.141C1179.63 636.648 1164.95 636.592 1153.86 633.713C1141.88 630.665 1137.39 623.158 1128.2 618.134C1109.32 607.861 1090.25 605.603 1079.96 590.589C1070.68 577.099 1068.98 562.761 1051.2 551.472C1010.76 525.846 966.821 560.447 928.772 569.365C907.502 574.332 887.429 579.13 867.357 585.226C842.791 592.677 840.295 608.652 819.123 617.4C801.448 624.682 778.48 628.521 757.109 626.206C723.754 622.537 704.481 632.359 673.125 632.02C647.26 631.738 631.182 636.367 622.794 652.51C616.902 663.855 608.314 669.105 593.934 677.628C578.355 686.885 561.578 701.448 538.31 705.004C532.119 705.963 518.137 704.552 512.545 704.044C497.566 702.69 495.069 702.464 480.489 706.02C458.819 711.27 436.55 709.012 414.081 706.133C387.118 702.69 371.439 696.594 359.455 681.918C349.07 669.105 339.583 657.646 333.991 643.76C328.499 629.988 324.504 613.506 314.417 600.523C309.824 594.596 301.136 590.419 295.244 585.339C290.651 581.331 290.75 580.259 287.655 576.026C285.757 573.43 288.054 571.341 283.26 569.761C276.07 567.389 265.285 571.284 258.194 572.357C244.413 574.445 225.739 577.099 211.659 574.219C189.789 569.761 166.721 558.697 152.44 548.424C130.57 532.675 127.675 518.113 131.469 498.639C132.968 490.85 131.869 483.398 137.861 476.174C144.751 468.045 151.741 461.498 154.537 452.353C156.935 444.621 157.333 440.726 151.142 435.081C148.845 432.936 145.15 432.202 143.053 429.323C140.157 425.372 140.956 419.446 140.656 415.212C139.557 400.931 139.957 382.474 124.279 370.564C106.704 357.13 77.0439 353.8 57.371 341.946C46.9853 335.681 38.0974 327.101 23.118 323.883C9.83627 321.061 -4.34419 322.416 -20.7217 325.407" stroke="#C2B69C" stroke-opacity="0.36" stroke-miterlimit="10" stroke-linecap="round"/>
<path d="M1420.19 942.529C1410.11 934.115 1407.61 918.935 1404.82 913.289C1400.42 904.367 1395.43 895.68 1392.53 886.537C1389.94 878.631 1389.14 871.24 1378.95 864.916C1348 845.607 1316.03 825.914 1283.48 806.833C1267.01 797.123 1248.93 786.177 1226.17 781.377C1207.58 777.483 1187.22 780.022 1168.54 777.365C1163.65 776.688 1158.16 774.263 1153.76 773.699C1146.07 772.739 1138.18 773.755 1130.19 773.699C1072.67 773.416 1152.56 694.167 1160.05 682.031C1162.65 677.798 1164.05 671.08 1157.56 667.355C1151.17 663.686 1140.28 667.017 1132.29 664.59C1108.92 657.533 1119.01 638.511 1104.23 628.972C1092.85 621.634 1075.77 625.246 1065.48 615.256C1054.3 604.306 1055.1 591.549 1033.93 583.872C993.882 569.253 937.959 596.346 903.107 604.983C879.939 610.74 868.654 616.329 852.377 627.335C834.701 639.358 810.834 639.358 787.866 646.809C776.98 650.309 750.616 666.395 736.536 663.291C728.847 661.598 733.341 657.421 727.648 655.163C717.562 651.155 700.186 659.001 693.196 661.654C675.12 668.653 654.449 674.129 640.768 683.724C622.892 696.255 608.312 708.955 585.044 718.721C564.274 727.526 544.5 733.34 518.436 734.808C489.676 736.444 457.519 737.912 428.56 737.517C398.7 737.121 357.757 723.97 338.882 710.987C326.2 702.182 313.617 691.74 301.934 682.426C287.254 670.798 280.463 657.985 264.085 646.978C247.509 635.802 243.814 628.182 219.047 622.085C195.181 616.215 181.999 603.572 159.33 596.234C115.79 582.066 88.5271 559.657 84.233 530.644C82.3355 517.548 81.6366 502.195 87.5285 489.721C90.8239 482.665 95.7172 473.916 102.208 467.425C105.303 464.32 113.293 460.369 111.894 456.136C109.997 450.548 97.5145 450.434 94.7186 444.846C91.523 438.468 95.6174 428.364 94.8185 421.704C93.1208 405.617 87.6284 393.481 70.0525 380.781C61.7639 374.741 49.98 372.483 40.2934 367.573C30.6067 362.662 25.7134 356.058 16.0268 351.034C0.647913 343.131 4.04328 363.396 -20.3232 368.87" stroke="#C2B69C" stroke-opacity="0.36" stroke-miterlimit="10" stroke-linecap="round"/>
<path d="M-20.4229 403.98C4.443 390.433 -7.34076 369.661 13.9299 380.329C23.317 385.014 29.5085 388.401 40.4934 392.07C55.6725 397.15 62.8626 403.641 67.2565 413.688C71.6504 423.905 67.0569 435.25 69.5535 445.693C70.7517 450.66 75.745 454.837 76.8434 459.466C78.641 466.973 66.7573 471.206 62.4632 477.924C59.3674 482.778 58.5685 488.817 58.4686 493.841C58.0692 510.436 62.7628 528.612 65.9583 545.094C68.6546 559.092 78.3413 573.147 87.9282 586.017C95.0184 595.5 102.608 605.603 113.493 613.957C123.08 621.352 137.759 627.222 143.352 636.141C149.844 646.47 142.154 667.186 158.231 674.467C164.722 677.402 179.502 675.596 186.792 676.048C193.383 676.443 200.973 677.967 207.564 677.967C218.648 677.967 232.829 670.121 243.015 674.185C245.412 675.145 245.711 678.532 246.809 679.66C251.403 684.176 250.705 685.079 258.295 688.522C266.882 692.417 277.367 695.183 285.656 699.247C308.624 710.593 326.6 725.099 344.075 739.041C354.162 747.113 358.057 754.507 374.534 759.192C387.417 762.805 399.4 763.312 413.681 763.312C443.04 763.312 469.703 758.797 498.364 757.104C510.447 756.426 520.733 753.491 532.218 752.362C541.204 751.459 546.497 752.531 554.985 751.516C579.553 748.524 604.718 735.542 624.291 727.244C645.661 718.156 662.239 704.891 684.708 696.763C691.798 694.223 701.485 691.74 710.273 693.376C716.165 694.449 717.662 698.231 722.157 699.021C733.341 701.053 738.733 697.214 745.824 692.474C757.807 684.571 767.095 681.918 785.669 679.999C795.056 679.039 803.844 676.668 813.031 675.483C826.412 673.79 831.605 673.677 837.597 666.283C842.191 660.694 846.286 654.937 850.879 649.406C859.667 638.963 872.65 636.818 888.627 630.271C922.081 616.61 961.726 608.483 1003.57 612.885C1032.23 615.877 1074.57 631.286 1084.76 647.825C1091.75 659.227 1086.76 669.5 1101.03 679.886C1111.52 687.506 1116.21 690.61 1116.31 701.166C1116.61 724.027 1089.15 741.355 1087.55 763.257C1087.05 770.369 1084.26 778.381 1094.44 783.291C1107.73 789.615 1127.8 784.874 1142.98 787.134C1156.76 789.166 1165.75 795.092 1179.72 797.123C1187.02 798.139 1196.41 799.325 1204.99 801.975C1219.47 806.495 1237.05 811.464 1250.52 816.654C1263.21 821.505 1274.8 830.368 1286.49 836.294C1312.84 849.729 1342.21 863.613 1352.09 883.99C1359.98 900.193 1360.47 925.708 1367.17 942.529" stroke="#C2B69C" stroke-opacity="0.36" stroke-miterlimit="10" stroke-linecap="round"/>
<path d="M1576.68 403.98C1555.41 412.164 1541.13 423.905 1512.57 424.244C1501.29 424.356 1490.9 420.857 1479.62 420.631C1466.33 420.405 1453.05 420.518 1440.67 423.453C1430.58 425.88 1420.1 427.065 1409.91 429.38C1395.23 432.654 1381.05 435.815 1368.07 441.064C1360.28 444.225 1352.29 448.12 1345.3 451.902C1337.71 455.966 1332.52 461.385 1325.53 465.787C1318.44 470.303 1309.55 473.408 1301.26 477.133C1292.37 481.084 1283.48 485.036 1274.5 488.93C1262.02 494.349 1248.04 498.3 1236.05 504.114C1228.16 507.952 1220.18 511.565 1212.18 515.29C1204.69 518.79 1196.11 523.588 1186.71 525.169C1183.22 525.732 1179.83 525.451 1176.23 525.846C1171.94 526.297 1168.14 526.918 1163.75 526.354C1145.28 524.039 1132.39 516.081 1119.61 508.743C1112.72 504.791 1104.43 501.8 1096.94 498.187C1088.55 494.067 1081.86 489.156 1074.07 484.81C1068.38 481.648 1063.49 478.77 1059.39 474.875C1056 471.601 1051.1 463.36 1054.3 455.345C1057.7 446.878 1069.38 438.75 1069.38 438.75C1078.37 435.871 1084.36 426.84 1093.75 424.356C1098.74 423.002 1103.23 421.478 1107.73 419.615C1115.12 416.623 1123.51 414.648 1132.29 413.632C1144.38 412.164 1156.76 411.713 1168.64 410.019C1173.53 409.285 1179.03 409.06 1183.13 407.253C1189.01 404.6 1192.41 400.931 1197.01 397.657C1204.79 392.183 1213.38 387.046 1221.77 381.796C1227.96 377.958 1232.16 374.12 1234.95 369.153C1236.45 366.387 1237.35 363.621 1233.16 361.702C1224.96 358.033 1211.58 358.541 1202.1 359.67C1196.81 360.291 1192.01 361.363 1187.52 363.113C1180.92 365.596 1172.34 369.039 1167.25 372.483C1158.36 378.635 1151.47 385.127 1138.68 388.908C1131.59 391.053 1124 392.465 1116.52 394.102C1112.12 395.061 1108.13 396.246 1104.03 397.488C1096.54 399.803 1088.45 400.706 1080.56 402.456C1070.88 404.657 1060.39 407.818 1050.31 410.188C1043.12 411.882 1036.13 414.14 1028.64 415.438C1012.96 418.148 1006.57 421.647 994.283 427.799C988.391 430.734 982.799 433.726 977.106 436.831C970.716 440.33 962.427 442.532 955.637 445.806C947.448 449.757 941.356 454.386 932.169 457.659C926.676 459.635 921.183 461.667 915.591 463.473C908.901 465.618 901.611 467.086 894.919 469.231C884.934 472.391 876.046 476.512 865.56 478.995C858.67 480.633 851.48 481.874 844.489 483.398C837.998 484.81 831.806 485.205 825.715 487.237C823.318 488.027 821.421 489.1 819.024 489.89C811.934 492.148 803.245 493.671 795.756 495.365C786.468 497.397 776.682 499.937 766.996 501.179C760.604 502.025 754.013 502.364 747.623 503.042C734.541 504.452 721.359 505.694 708.276 507.05C691.3 508.855 674.223 510.831 657.446 513.258C645.763 514.951 634.777 517.717 623.193 519.636C620.098 520.144 617.002 520.709 614.005 521.386C610.012 522.289 605.917 522.346 601.623 522.685C596.53 523.08 591.337 523.419 586.144 523.813C579.254 524.321 572.263 523.757 565.372 524.209C554.987 524.886 544.901 524.66 534.515 525.055C524.13 525.45 513.843 525.789 503.458 525.732C485.483 525.677 466.409 526.974 449.132 523.813C444.739 523.023 442.143 520.878 439.545 518.846C436.85 516.701 433.454 514.387 431.457 511.96C428.961 508.912 427.462 507.896 423.168 505.638C418.475 503.267 415.18 499.712 410.886 497.002C404.594 493.051 398.602 489.1 392.71 484.866C385.52 479.673 380.927 473.972 377.032 467.876C375.435 465.449 373.737 463.135 372.139 460.707C372.139 460.764 368.844 455.345 368.844 455.345C368.844 455.345 359.257 453.708 356.16 453.37C349.37 452.579 342.28 453.708 335.489 452.748C329.697 451.959 324.005 450.886 318.613 449.644C313.02 448.345 306.629 446.426 300.737 446.144C297.741 445.975 292.747 445.467 290.85 443.887C289.552 442.814 290.151 442.024 290.052 440.782C289.751 438.072 288.354 435.589 288.453 432.767C288.554 429.719 287.655 426.219 286.556 423.227C285.957 421.478 285.059 419.502 284.259 417.752C283.361 415.89 283.061 414.083 282.362 412.221C280.864 408.213 278.468 404.149 276.171 400.254C273.275 395.343 271.877 390.715 269.98 385.804C268.78 382.756 266.684 379.877 264.986 376.829C263.688 374.515 262.489 372.2 261.391 369.83C259.593 365.992 259.193 362.435 259.294 358.428C259.294 355.323 259.193 352.219 259.294 349.115C259.394 346.631 256.897 345.05 255.1 342.736C251.904 338.503 248.009 334.439 244.414 330.318C242.916 328.624 242.416 326.705 240.819 325.012C238.922 323.036 235.327 322.02 232.831 320.327C229.535 318.126 226.738 316.207 224.642 313.554C221.745 309.941 217.751 306.78 214.456 303.281C211.46 300.12 207.465 297.185 204.968 293.91C203.171 291.54 203.87 290.298 204.769 287.871C205.767 285.162 206.766 282.904 206.666 280.138C206.666 275.96 206.666 271.784 206.666 267.607C206.666 262.47 206.965 257.447 205.468 252.423C205.068 250.955 205.568 249.432 204.469 248.133C203.171 246.553 199.876 244.859 197.679 243.73C192.485 241.021 187.692 238.142 182.998 235.094C180.602 233.514 180.402 233.232 177.207 232.667C173.511 231.99 169.517 232.272 165.922 231.538C162.228 230.748 158.932 229.563 155.037 228.941C146.548 227.587 137.261 226.119 130.171 223.071C122.182 219.684 113.694 216.129 104.707 213.588C100.013 212.234 95.918 210.71 90.7254 210.033C90.7254 210.033 75.147 206.871 47.8845 192.365C20.622 177.858 15.1294 147.773 -19.7227 152.684" stroke="#C2B69C" stroke-opacity="0.36" stroke-miterlimit="10" stroke-linecap="round"/>
<path d="M-20.4219 135.073C-18.6243 135.637 26.114 135.863 77.7431 176.222C84.0345 181.133 94.8196 183.221 104.606 185.704C107.402 186.438 109.1 187.567 111.497 188.527C113.594 189.317 116.091 189.881 118.388 190.502C121.983 191.518 125.478 192.308 128.673 193.719C131.968 195.187 134.864 196.88 138.459 198.235C142.454 199.815 146.848 201.961 149.844 204.106C150.743 204.783 151.241 205.573 152.141 206.25C156.136 209.299 163.425 211.33 168.918 213.363C182 218.217 195.282 222.789 207.765 228.208C214.855 231.313 220.047 234.982 223.743 239.61C227.338 244.069 228.935 249.206 231.132 253.947C233.229 258.52 233.828 263.204 234.628 267.889C235.426 273.364 234.927 279.009 234.927 284.485C234.827 296.112 237.423 307.006 248.508 317.505C253.002 321.794 257.696 325.802 259.593 330.713C261.191 334.89 264.587 338.616 266.683 342.68C268.281 345.728 269.279 348.832 270.278 351.937C270.977 354.195 271.078 356.791 272.175 358.992C273.274 361.307 275.072 363.451 275.571 365.879C275.87 367.177 276.469 368.25 277.269 369.491C279.865 373.442 282.162 377.393 284.26 381.458C286.955 386.538 290.151 391.392 293.546 396.303C296.143 400.085 298.839 403.81 303.233 407.084C307.628 410.358 312.919 413.18 317.314 416.51C319.012 417.752 320.31 419.107 322.806 419.898C325.502 420.8 328.798 421.365 331.595 422.155C342.08 425.203 349.57 430.227 356.659 435.476C362.951 440.161 369.442 444.338 376.732 448.572C381.924 451.62 387.418 454.386 392.81 457.321C400.998 461.724 406.89 466.973 413.781 471.94C415.679 473.295 417.076 474.367 419.573 475.496C423.667 477.246 427.463 479.109 431.656 480.745C436.75 482.778 442.142 483.455 447.835 484.81C453.226 486.052 458.519 487.35 463.912 488.535C467.907 489.382 471.002 491.019 474.897 491.809C504.156 497.905 547.297 496.607 576.757 491.809C606.416 487.011 633.08 477.641 662.938 472.674C673.723 470.868 684.11 468.722 695.094 467.312C699.888 466.691 704.382 465.675 709.275 465.618C712.97 465.562 716.665 465.675 720.359 465.675C728.648 465.675 737.037 465.675 745.325 465.675C754.512 465.675 763.4 464.941 772.587 464.997C784.871 465.053 797.953 465.675 810.136 464.828C831.207 463.417 852.178 461.441 872.85 458.675C889.926 456.361 915.792 454.498 928.074 446.54C930.871 444.733 933.067 442.532 935.664 440.613C963.425 420.236 999.276 409.454 1039.52 399.125C1044.91 397.714 1050.01 396.303 1055.1 394.61C1061.59 392.408 1068.58 390.884 1075.67 389.36C1083.36 387.667 1089.65 386.425 1095.44 383.151C1121.01 368.701 1154.76 357.525 1189.12 351.316C1194.11 350.412 1198.91 350.695 1204.29 350.695C1213.68 350.751 1222.97 349.509 1232.26 350.751C1241.25 351.937 1246.34 358.372 1246.43 363.226C1246.43 366.048 1245.34 368.757 1245.24 371.58C1245.14 374.572 1243.14 377.393 1242.64 380.329C1242.14 383.829 1239.55 386.707 1237.65 390.094C1234.65 395.287 1227.96 399.069 1223.67 403.81C1219.17 408.834 1219.27 413.971 1218.17 419.446C1215.28 433.501 1196.81 446.257 1183.52 457.829C1181.03 460.03 1179.63 462.514 1178.04 464.997C1172.74 472.956 1172.54 480.52 1172.44 488.817C1172.44 489.551 1172.44 490.341 1173.14 490.962C1174.04 491.752 1175.63 492.035 1177.23 492.26C1208.49 496.155 1215.38 470.134 1230.36 460.651C1254.92 445.072 1293.87 436.831 1325.93 427.405C1342.01 422.663 1358.48 417.583 1375.26 413.293C1409.81 404.488 1445.26 398.899 1481.01 392.239C1528.04 383.489 1529.85 375.926 1577.08 368.814" stroke="#C2B69C" stroke-opacity="0.36" stroke-miterlimit="10" stroke-linecap="round"/>
<path d="M1576.68 193.268C1541.83 185.366 1495.39 208.396 1463.24 213.081C1432.88 217.483 1391.93 223.692 1362.08 214.718C1342.7 208.904 1323.23 205.799 1310.35 195.921C1291.67 181.641 1280.28 164.481 1245.83 162.9C1219.47 161.659 1185.82 164.312 1161.75 170.464C1112.32 183.052 1089.75 207.775 1055.4 229.506C1039.22 239.723 1017.25 241.473 996.68 248.867C976.108 256.262 958.432 264.785 935.963 270.768C889.228 283.186 824.616 280.759 774.586 275.51C711.372 268.849 701.785 237.409 693.697 206.025C688.703 186.438 678.018 167.755 672.226 148.281C667.033 130.952 672.625 107.302 658.344 91.7227C639.97 71.628 579.253 57.2909 543.004 51.5899C529.422 49.4449 514.842 47.8079 500.762 48.0902C479.99 48.4853 460.018 52.0414 439.047 52.4365C395.606 53.1703 353.964 48.3724 312.721 41.0345C310.623 40.6393 308.427 40.2442 306.329 39.8491" stroke="#C2B69C" stroke-opacity="0.36" stroke-miterlimit="10" stroke-linecap="round"/>
<path d="M1576.68 152.684C1546.83 159.401 1475.82 168.15 1442.57 168.207C1424.99 168.207 1401.82 168.545 1385.54 164.538C1362.97 159.062 1340.61 145.177 1322.53 135.524C1285.88 115.994 1234.65 121.752 1186.91 121.752C1170.74 121.752 1150.97 120.058 1136.09 124.743C1106.03 134.17 1096.44 154.265 1083.16 170.182C1070.08 185.93 1050.31 199.534 1037.72 215.452C1029.24 226.119 1019.85 232.555 1003.07 239.215C988.291 245.086 962.826 256.826 945.35 259.705C897.515 267.551 828.61 268.68 785.67 253.157C765.597 245.932 758.108 231.369 749.519 219.459C735.938 200.719 719.56 181.753 711.372 161.941C696.692 126.493 701.585 76.1437 634.877 60.6212C624.291 58.1376 611.01 57.5166 601.124 54.5815C589.14 50.969 582.549 44.9293 574.061 39.7363" stroke="#C2B69C" stroke-opacity="0.36" stroke-miterlimit="10" stroke-linecap="round"/>
<path d="M1576.68 135.073C1541.53 134.452 1541.83 139.588 1508.47 145.007C1487.31 148.451 1471.42 156.748 1451.45 160.643C1430.49 164.763 1398.43 155.788 1382.95 147.886C1373.67 143.145 1368.27 134.734 1360.18 129.09C1350.39 122.316 1338.91 118.026 1330.52 110.35C1315.14 96.3512 1297.66 74.5632 1273.69 64.5723C1223.77 43.8568 1154.66 58.8149 1117.11 83.1994C1080.86 106.737 1076.47 134.791 1056.8 162.28C1023.64 208.621 990.188 249.319 891.525 247.286C872.351 246.892 856.273 239.892 838.397 235.997C799.252 227.474 770.191 211.952 753.215 189.825C739.832 172.44 734.541 154.603 728.348 136.033C722.357 118.083 723.256 73.8859 685.307 67.0559C669.73 64.2337 662.339 51.8156 647.161 47.4129C637.174 44.5341 624.691 45.7759 614.905 42.5585C612.707 41.8247 610.71 40.9216 608.913 39.8491" stroke="#C2B69C" stroke-opacity="0.36" stroke-miterlimit="10" stroke-linecap="round"/>
<path d="M1576.68 219.458C1545.93 207.097 1499.19 219.966 1470.93 226.627C1417.51 239.215 1371.97 256.544 1313.35 242.884C1238.45 225.442 1170.94 203.541 1100.14 234.981C1067.98 249.262 1031.83 275.735 993.085 283.242C962.727 289.169 923.781 282.678 892.124 287.08C859.868 291.54 829.21 294.644 795.656 293.684C769.093 292.951 722.756 297.297 700.587 289.507C681.314 282.791 669.131 263.091 662.24 252.027C641.469 218.612 615.704 184.35 602.322 149.692C602.222 149.692 602.123 149.805 602.023 149.805C601.723 149.466 601.822 147.096 601.923 147.321C600.325 127.735 591.238 80.6588 541.606 82.4651C540.507 82.5215 539.508 82.6909 538.411 82.7473C537.412 82.7473 536.512 82.6344 535.514 82.8038C534.216 82.9731 534.316 83.2553 534.316 83.8762C534.316 84.6665 534.316 85.1745 534.816 86.0212C536.213 88.6741 538.61 91.1577 540.208 93.8106C543.204 98.7779 544.801 103.914 546.799 109.051C550.693 118.929 555.787 128.581 561.179 138.177C563.775 142.749 566.072 147.321 568.469 151.95C578.456 171.142 587.243 190.389 604.719 207.943C607.515 210.71 609.512 213.645 612.609 216.354C617.601 220.757 621.595 225.95 624.392 230.917C626.289 234.191 628.087 237.465 629.685 240.795C630.684 242.884 632.081 244.915 632.081 247.173C632.081 248.189 632.481 249.77 630.084 250.052C629.085 250.165 627.987 249.826 627.089 249.6C623.992 248.81 621.396 247.23 618.899 245.988C617.002 245.085 615.404 244.126 613.607 243.11C610.511 241.303 607.215 239.723 604.119 237.916C595.831 233.119 589.04 227.418 583.049 221.66C575.16 214.096 569.667 205.742 561.279 198.292C558.183 195.582 554.788 193.268 551.193 190.84C530.321 176.673 521.034 158.667 501.861 143.821C487.879 132.984 467.109 125.928 451.729 115.825C448.634 113.849 445.538 111.873 443.042 109.672C435.452 103.011 429.96 96.012 421.271 89.803C420.472 89.2386 420.672 89.2386 419.774 88.6741C419.274 88.2226 417.776 87.4324 417.776 87.4324C417.776 87.4324 420.572 86.3599 421.97 86.1341C424.466 85.7954 427.462 85.8518 429.96 85.9648C444.139 86.6986 456.622 91.327 467.708 96.0684C477.793 100.415 487.78 106.85 500.563 108.317C502.06 108.487 503.658 108.599 505.056 108.374C513.045 107.075 510.249 98.3828 509.65 95.1089C509.35 93.6413 509.35 92.1173 508.751 90.6497C508.351 89.803 507.952 89.0128 507.552 88.2226C506.553 86.1341 504.857 84.1585 503.458 82.1264C501.96 79.925 499.964 77.6672 498.965 75.4094C498.365 74.0547 497.766 72.5871 497.667 71.176C497.667 70.3292 497.466 69.7084 497.267 68.8617C497.167 68.2972 497.067 68.0715 496.568 67.6199C496.168 67.2248 495.569 66.0959 495.169 65.7007C483.486 55.2584 482.887 49.0493 482.887 49.0493" stroke="#C2B69C" stroke-opacity="0.36" stroke-miterlimit="10" stroke-linecap="round"/>
<path d="M192.485 39.793C196.68 53.7351 279.366 72.7008 306.43 78.6276C326.601 83.0303 346.573 84.0464 365.848 91.7229C390.214 101.432 417.676 114.132 434.254 128.187C447.535 139.476 452.428 151.217 464.013 162.901C475.696 174.698 489.677 184.237 504.357 194.624C537.312 217.879 564.774 244.578 600.225 266.478C637.174 289.283 684.11 309.998 739.833 312.312C802.847 314.909 868.057 310.958 931.769 311.014C963.625 311.071 997.179 311.692 1026.54 303.564C1049.31 297.242 1068.98 288.041 1092.85 282.453C1161.55 266.366 1221.77 253.214 1295.07 256.996C1328.32 258.746 1357.68 256.657 1390.14 253.327C1409.22 251.351 1423.49 248.077 1438.37 244.465C1456.54 240.062 1476.22 237.861 1496 238.03L1501.58 238.086C1505.28 238.143 1506.18 241.022 1502.79 241.755C1492.49 243.957 1479.22 246.835 1469.03 248.811C1449.75 252.65 1380.06 273.816 1324.43 275.566C1268.8 277.316 1240.15 283.977 1240.15 283.977C1240.15 283.977 1204.89 291.71 1279.99 290.807C1355.09 289.904 1367.08 295.21 1407.61 287.872C1448.16 280.534 1489.3 271.107 1513.18 271.728C1537.13 272.292 1576.68 273.139 1576.68 273.139" stroke="#C2B69C" stroke-opacity="0.36" stroke-miterlimit="10" stroke-linecap="round"/>
<path d="M1576.99 350.864C1542.83 360.404 1523.46 362.717 1487.31 369.547C1447.56 377.055 1407.41 389.19 1365.77 393.198C1340.9 395.569 1308.85 396.528 1296.77 381.909C1285.28 368.023 1279.49 354.759 1257.42 343.978C1235.95 333.535 1201.5 340.309 1177.03 344.204C1120.81 353.066 1078.57 373.781 1027.64 388.513C970.115 405.165 911.396 419.389 851.378 433.444C825.514 439.484 798.352 442.306 770.489 443.661C718.361 446.2 665.934 447.781 613.605 450.547C586.243 452.014 558.881 452.692 531.518 454.16C512.644 455.176 492.173 458.788 473.099 457.038C449.331 454.837 421.569 446.426 402.296 438.242C357.257 419.219 314.317 391.109 298.139 360.121C289.55 343.696 279.963 326.423 266.482 310.957C253.9 296.563 242.416 288.605 242.116 272.348C241.517 239.102 229.833 214.943 186.991 190.163C139.957 162.957 25.4138 111.196 -20.3232 116.502" stroke="#C2B69C" stroke-opacity="0.36" stroke-miterlimit="10" stroke-linecap="round"/>
<path d="M-20.4219 85.6268C42.0921 83.3125 135.064 144.105 188.491 167.586C214.056 178.818 228.036 191.462 244.114 207.38C263.388 226.346 270.578 247.795 283.859 268.172C295.743 286.347 316.515 303.62 331.594 321.175C359.356 353.687 411.285 387.555 467.607 404.996C484.884 410.359 500.263 412.39 519.935 411.882C543.702 411.262 564.174 414.309 587.942 416.229C638.372 420.236 693.397 419.785 743.927 416.85C778.679 414.817 817.926 418.204 851.879 414.309C880.839 410.979 906.604 399.973 932.369 392.409C960.329 384.224 987.991 375.814 1016.35 367.798C1052.8 357.469 1086.26 344.825 1124.6 336.641C1155.76 329.98 1185.02 328.061 1217.88 328.061C1251.93 328.061 1282.49 329.923 1310.95 340.196C1327.42 346.123 1345.99 354.195 1365.18 356.679C1374.36 357.864 1382.05 356.171 1391.14 356.735C1425.49 358.88 1464.23 356.453 1498.09 352.445C1532.15 348.382 1555.41 338.56 1576.38 338.56" stroke="#C2B69C" stroke-opacity="0.36" stroke-miterlimit="10" stroke-linecap="round"/>
<path d="M1576.68 325.521C1532.64 333.705 1476.42 345.559 1431.78 346.631C1383.25 347.817 1343.6 333.649 1298.27 326.762C1270.7 322.585 1246.03 318.86 1217.18 319.255C1190.22 319.594 1161.55 319.255 1135.39 321.118C1103.03 323.376 1071.08 332.971 1041.32 339.971C952.74 360.799 860.867 385.127 764.1 388.006C707.578 389.699 650.656 389.756 594.632 384.901C562.077 382.079 530.92 381.063 502.759 370.564C476.196 360.629 453.027 343.414 433.854 329.246C408.888 310.845 382.325 293.572 362.452 273.083C331.594 241.247 290.551 213.984 246.612 187.511C208.663 164.594 178.405 136.767 135.864 116.05C114.493 105.608 89.0278 94.432 63.1634 87.8844C58.5697 86.699 -11.2343 72.3054 -20.5215 67.564" stroke="#C2B69C" stroke-opacity="0.36" stroke-miterlimit="10" stroke-linecap="round"/>
<path d="M-20.4229 46.6792C32.804 51.2513 128.871 84.2156 158.631 96.0691C188.49 107.923 222.343 114.753 248.507 129.823C293.246 155.619 316.413 190.672 351.366 220.193C382.323 246.44 413.98 272.349 452.127 295.435C471.5 307.176 489.975 317.166 505.554 330.6C514.042 337.882 529.72 354.872 546.198 356.565C550.691 348.945 555.485 345.164 550.691 337.375C542.404 323.996 517.237 312.595 501.859 301.983C472.1 281.437 456.121 256.319 430.457 234.305C411.184 217.709 381.624 204.671 359.455 189.205C332.991 170.69 313.218 149.58 285.656 131.63C263.986 117.518 236.924 103.181 218.748 87.8281C234.527 77.2163 277.767 87.6023 290.75 94.8838C324.304 113.68 332.991 141.452 366.945 159.514C382.822 167.925 401.896 171.424 418.174 178.932C450.829 193.946 475.794 218.669 502.458 236.788C548.894 268.285 589.739 299.612 610.31 338.39C613.605 344.599 638.171 354.138 638.171 354.138C638.171 354.138 710.972 347.591 818.523 356.565C863.861 360.348 910.597 350.244 952.739 340.31C1001.77 328.738 1057.6 325.464 1107.73 313.949C1131.09 308.587 1153.56 303.112 1178.22 299.838C1207.19 296 1236.85 299.047 1266.21 300.346C1336.61 303.45 1406.22 311.24 1476.52 314.006C1508.67 315.248 1544.62 316.658 1576.58 313.667" stroke="#C2B69C" stroke-opacity="0.36" stroke-miterlimit="10" stroke-linecap="round"/>
<path d="M1576.68 116.446C1540.73 120.623 1491.3 132.307 1453.86 133.662C1431.28 134.452 1424.59 128.187 1410.21 119.72C1375.66 99.3428 1346.7 74.9583 1306.06 58.2504C1285.98 49.9529 1265.4 44.9858 1240.24 44.5342C1227.17 44.3084 1213.99 44.5342 1200.9 44.5342C1181.62 44.5342 1159.16 41.8248 1140.58 44.5342C1121.21 47.3 1112.42 58.1376 1099.24 65.6449C1086.46 72.9264 1075.97 78.6838 1067.38 87.8844C1037.92 119.663 1038.92 157.595 996.48 185.084C981.8 194.567 967.919 204.445 954.038 214.266C944.252 221.265 933.567 230.692 918.488 234.474C850.681 251.464 805.843 207.098 784.372 178.536C772.388 162.618 764 146.306 761.404 129.146C759.806 118.308 754.712 100.698 766.596 90.9889C769.393 88.7311 777.681 84.6106 782.974 85.0057C795.356 85.9088 789.864 96.69 789.066 101.601C788.166 107.132 789.365 113.172 790.164 118.704C791.063 125.138 791.962 131.517 792.062 137.952C792.161 143.032 797.454 146.983 799.851 151.725C800.849 153.7 801.149 154.152 804.145 155.168C813.431 158.329 813.931 165.723 817.826 170.803C822.919 177.407 833.704 180.568 841.493 186.1C849.382 191.744 857.571 197.276 865.46 202.921C868.356 205.009 871.153 207.267 873.849 209.468C876.345 211.613 877.444 212.629 881.838 213.589C892.523 215.847 920.285 220.024 929.872 214.266C931.869 213.08 933.067 211.387 934.765 210.089C937.162 208.283 940.457 206.984 942.355 205.009C949.645 197.615 960.928 191.97 968.918 184.858C978.205 176.56 979.204 166.795 983.298 157.426C983.997 155.732 985.994 154.66 987.493 153.135C989.69 150.877 990.389 148.281 992.186 145.911C993.984 143.484 995.881 140.943 998.477 138.799C1000.67 136.935 1003.07 135.186 1004.87 133.154C1007.07 130.67 1008.26 127.848 1010.06 125.251C1011.16 123.558 1012.66 121.921 1013.46 120.172C1014.95 116.897 1014.16 112.946 1014.95 109.56C1015.55 106.907 1020.15 89.86 1013.96 91.2711C1008.26 92.5694 1003.07 93.8112 997.878 95.8433C977.506 103.802 970.915 119.099 962.327 131.404C952.84 144.951 936.063 155.506 910.599 159.457C904.906 160.361 899.314 160.699 893.822 161.941C890.526 162.675 887.331 163.634 883.835 163.973C880.041 164.312 875.846 164.086 872.051 164.086C866.758 164.086 862.365 162.28 858.869 160.191C849.582 154.829 846.985 144.387 843.69 137.331C841.893 133.549 840.794 129.711 839.596 125.872C839.196 124.631 838.897 123.389 837.898 122.26C833.904 117.8 827.813 114.019 823.617 109.616C821.72 107.64 818.225 106.907 816.628 104.987C815.33 103.407 812.334 100.867 813.632 99.0607C814.031 98.4398 815.33 97.9882 815.728 97.2544C816.528 96.0126 816.528 95.1659 817.926 94.037C819.723 92.5694 821.421 92.0614 824.517 91.6099C830.309 90.8196 833.904 91.7227 838.597 93.7547C847.385 97.5931 854.076 102.56 860.867 107.471C864.861 110.35 869.754 112.834 874.348 115.486C876.446 116.728 878.742 117.914 881.039 119.042C883.735 120.341 888.328 122.542 891.925 123.219C897.716 124.235 904.307 121.695 909.3 120.115C914.692 118.422 920.085 116.107 923.18 113.059C924.779 111.535 924.679 109.898 925.079 108.148C925.778 105.326 926.676 102.899 929.373 100.472C931.469 98.6656 933.567 96.2384 936.961 95.053C943.253 92.8516 951.642 94.9966 958.133 92.9081C962.228 91.6098 965.323 89.5778 968.819 87.828C972.812 85.7395 976.608 83.5381 980.802 81.5061C985.196 79.3611 990.288 77.7242 994.782 75.5793C998.278 73.886 1001.07 72.249 1003.87 70.1606C1006.87 67.9027 1010.46 65.9835 1014.16 64.1208C1015.65 63.3306 1017.35 62.5968 1018.75 61.7501C1020.05 60.9599 1050.21 39.8492 1051.9 39.7363" stroke="#C2B69C" stroke-opacity="0.36" stroke-miterlimit="10" stroke-linecap="round"/>
<path d="M1038.42 237.07C1038.42 237.07 1084.56 224.765 1093.15 220.306C1101.64 215.846 1110.22 217.709 1120.71 212.911C1131.19 208.113 1163.36 192.534 1178.42 192.139C1193.51 191.744 1211.89 189.542 1224.96 192.139C1238.05 194.735 1249.23 199.929 1268.21 207.323C1287.18 214.718 1322.93 225.668 1338.41 227.136C1373.27 230.465 1463.24 213.024 1463.24 213.024" stroke="#C2B69C" stroke-opacity="0.36" stroke-miterlimit="10" stroke-linecap="round"/>
<path d="M546.099 356.565C546.099 356.565 555.287 369.718 562.277 371.241C569.267 372.765 584.447 375.814 588.84 377.056C593.134 378.298 610.112 386.199 610.112 386.199" stroke="#C2B69C" stroke-opacity="0.36" stroke-miterlimit="10" stroke-linecap="round"/>
<path d="M958.431 310.957C958.431 310.957 1022.54 311.691 1038.42 308.078C1054.3 304.466 1066.48 298.934 1092.45 297.297C1118.51 295.66 1153.46 301.079 1169.14 301.192" stroke="#C2B69C" stroke-opacity="0.36" stroke-miterlimit="10" stroke-linecap="round"/>
<path d="M182.697 478.206C185.194 472.109 212.256 456.53 218.049 449.362C223.841 442.194 221.444 431.751 224.241 419.107C226.937 406.463 230.432 401.553 231.431 394.215C232.429 386.877 229.333 382.192 223.941 373.33C218.448 364.411 209.56 356.114 203.369 348.55C197.177 340.986 189.987 328.569 189.987 328.569C189.288 327.27 163.125 300.854 141.354 294.25C125.476 289.451 128.172 286.46 109.697 277.88C91.223 269.301 90.6239 261.455 74.4463 261.116C58.2685 260.721 6.43966 241.36 -20.2236 219.628" stroke="#C2B69C" stroke-opacity="0.36" stroke-miterlimit="10" stroke-linecap="round"/>
<path d="M218.748 87.8277C218.748 87.8277 193.184 92.5691 179.303 86.473C165.422 80.4333 77.2432 39.7925 77.2432 39.7925" stroke="#C2B69C" stroke-opacity="0.36" stroke-miterlimit="10" stroke-linecap="round"/>
<path d="M1256.22 163.973C1259.12 164.481 1277.4 165.553 1297.97 165.778C1318.53 166.061 1321.73 162.223 1342.3 168.319C1362.88 174.415 1350.39 179.721 1378.16 178.197C1405.91 176.673 1455.25 182.543 1477.32 166.4" stroke="#C2B69C" stroke-opacity="0.36" stroke-miterlimit="10" stroke-linecap="round"/>
<path d="M1353.69 83.312C1353.69 83.312 1385.25 98.2137 1413.2 101.883C1441.26 105.552 1458.84 104.479 1458.84 104.479C1458.84 104.479 1478.32 100.81 1484.71 100.81H1502.39C1505.18 100.81 1519.16 94.5447 1528.84 91.3837C1538.43 88.2228 1576.68 85.5698 1576.68 85.5698" stroke="#C2B69C" stroke-opacity="0.36" stroke-miterlimit="10" stroke-linecap="round"/>
<path d="M638.272 354.139C638.272 354.139 621.695 367.517 664.636 367.968C738.434 368.702 757.409 376.548 774.684 379.652C792.06 382.756 806.641 386.256 832.704 382.644" stroke="#C2B69C" stroke-opacity="0.36" stroke-miterlimit="10" stroke-linecap="round"/>
<path d="M564.973 283.864C564.973 283.864 532.518 251.464 534.216 239.497C535.913 227.531 527.225 217.879 522.831 214.04C518.437 210.202 509.449 198.179 509.449 198.179" stroke="#C2B69C" stroke-opacity="0.36" stroke-miterlimit="10" stroke-linecap="round"/>
<path d="M631.082 249.601C631.082 249.601 632.88 252.987 637.773 260.947C649.257 279.856 691.898 290.863 707.577 291.484" stroke="#C2B69C" stroke-opacity="0.36" stroke-miterlimit="10" stroke-linecap="round"/>
<path d="M417.775 87.3762C417.775 87.3762 394.607 66.3219 347.073 62.653C259.193 55.8795 240.419 39.7925 240.419 39.7925" stroke="#C2B69C" stroke-opacity="0.36" stroke-miterlimit="10" stroke-linecap="round"/>
</g>
<rect x="-81" width="1715" height="159" fill="url(#paint0_linear_2641_3)"/>
<rect width="2567" height="277" transform="matrix(1 0 0 -1 -484 1097)" fill="url(#paint1_linear_2641_3)"/>
</g>
<defs>
<linearGradient id="paint0_linear_2641_3" x1="776.5" y1="0" x2="777" y2="159" gradientUnits="userSpaceOnUse">
<stop stop-color="#E5E4E2"/>
<stop offset="1" stop-color="#D9D9D9" stop-opacity="0"/>
</linearGradient>
<linearGradient id="paint1_linear_2641_3" x1="1284" y1="164" x2="1284.24" y2="412.5" gradientUnits="userSpaceOnUse">
<stop stop-color="#E5E4E2"/>
<stop offset="0.56167" stop-color="#D9D9D9" stop-opacity="0"/>
</linearGradient>
<clipPath id="clip0_2641_3">
<rect width="1600" height="933" fill="white"/>
</clipPath>
<clipPath id="clip1_2641_3">
<rect width="1600" height="904" fill="white" transform="translate(-22 39)"/>
</clipPath>
</defs>
</svg>
