<?xml version="1.0" standalone="no"?>
<!DOCTYPE svg PUBLIC "-//W3C//DTD SVG 1.1//EN" "http://www.w3.org/Graphics/SVG/1.1/DTD/svg11.dtd" >
<svg xmlns="http://www.w3.org/2000/svg" xmlns:xlink="http://www.w3.org/1999/xlink" version="1.1">
<metadata>
Created by FontForge 20170924 at Fri Dec  9 21:33:05 1927
 By www-data
Copyright (C) 1993; Type Market Ltd. Moscow, 119136, Box 20; phone:(095)1427712; Created by A.Kustov
</metadata>
<defs>
<font id="Gals" horiz-adv-x="500" >
  <font-face 
    font-family="Gals"
    font-weight="400"
    font-stretch="normal"
    units-per-em="1000"
    panose-1="0 0 0 0 0 0 0 0 0 0"
    ascent="800"
    descent="-200"
    x-height="449"
    cap-height="682"
    bbox="-62 -230 1093 848"
    underline-thickness="50"
    underline-position="-125"
    unicode-range="U+0020-2122"
  />
<missing-glyph horiz-adv-x="770" 
d="M48 0v770h674v-770h-674zM674 48v674h-578v-674h578z" />
    <glyph glyph-name=".notdef" horiz-adv-x="770" 
d="M48 0v770h674v-770h-674zM674 48v674h-578v-674h578z" />
    <glyph glyph-name=".null" horiz-adv-x="0" 
 />
    <glyph glyph-name="nonmarkingreturn" horiz-adv-x="278" 
 />
    <glyph glyph-name="space" unicode=" " horiz-adv-x="278" 
 />
    <glyph glyph-name="exclam" unicode="!" horiz-adv-x="271" 
d="M79 543q0 148 56 148t56 -148q0 -66 -6 -107l-25 -172q-9 -63 -25 -63t-25 63l-25 172q-6 41 -6 107zM136 111q25 0 42.5 -17.5t17.5 -42.5t-17.5 -42.5t-42.5 -17.5t-42.5 17.5t-17.5 42.5t17.5 42.5t42.5 17.5z" />
    <glyph glyph-name="quotedbl" unicode="&#x22;" horiz-adv-x="354" 
d="M241 462l-23 137v117h88v-117l-23 -137h-42zM71 462l-23 137v117h88v-117l-23 -137h-42z" />
    <glyph glyph-name="numbersign" unicode="#" horiz-adv-x="584" 
d="M196 617h72l-41 -195h194l41 195h72l-41 -195h91v-69h-105l-36 -170h141v-69h-155l-41 -195h-72l41 195h-194l-41 -195h-72l41 195h-90v69h104l36 170h-140v69h154zM213 353l-36 -170h194l36 170h-194z" />
    <glyph glyph-name="dollar" unicode="$" horiz-adv-x="542" 
d="M470 596v-108q-25 25 -67 47.5t-82 31.5v-198q86 -23 133.5 -74t47.5 -119q0 -65 -44 -117q-50 -59 -137 -68v-109h-82v109q-55 0 -118 31q-18 9 -70 39v121q49 -43 88 -65t100 -36v216q-91 24 -141 75q-46 46 -46 100q0 72 50 121t137 62v36h82v-36q36 -3 79 -19.5
t70 -39.5zM239 396v171q-39 -5 -64 -28t-25 -54q0 -59 89 -89zM321 262v-180q85 20 85 86q0 31 -19.5 53t-65.5 41z" />
    <glyph glyph-name="percent" unicode="%" horiz-adv-x="680" 
d="M502 222q-33 0 -56 -23t-23 -56t23 -56t56 -23t56 23t23 56q0 32 -22.5 55.5t-56.5 23.5zM502 296q62 0 107.5 -44.5t45.5 -108.5q0 -63 -45 -108t-108 -45q-64 0 -108.5 44.5t-44.5 108.5q0 63 45 108t108 45zM602 691l-449 -701h-75l449 701h75zM178 690
q62 0 107.5 -44.5t45.5 -108.5q0 -63 -45 -108t-108 -45q-64 0 -108.5 44.5t-44.5 108.5q0 63 45 108t108 45zM178 616q-33 0 -56 -23t-23 -56t23 -56t56 -23t56 23t23 56q0 32 -22.5 55.5t-56.5 23.5z" />
    <glyph glyph-name="ampersand" unicode="&#x26;" horiz-adv-x="625" 
d="M495 339h98q-15 -42 -44 -89.5t-67 -89.5l138 -160h-126l-78 93q-62 -56 -114 -79t-102 -23q-70 0 -121 47t-51 115q0 57 45 110q40 47 116 91q-32 34 -53 73q-24 45 -24 85q0 72 47.5 114.5t127.5 42.5q71 0 117.5 -42.5t46.5 -105.5q0 -50 -29 -92.5t-96 -89.5l96 -110
q20 20 40 50.5t33 59.5zM356 161l-111 128q-63 -40 -88 -66q-31 -33 -31 -70q0 -30 25 -51t59 -21q36 0 71.5 20.5t74.5 59.5zM208 521q0 -30 20 -63q16 -27 43 -53q53 33 71 57.5t18 53.5q0 30 -22 50t-56 20q-32 0 -53 -18t-21 -47z" />
    <glyph glyph-name="quotesingle" unicode="'" horiz-adv-x="188" 
d="M73 462l-23 137v117h88v-117l-23 -137h-42z" />
    <glyph glyph-name="parenleft" unicode="(" horiz-adv-x="323" 
d="M167 232q0 -270 144 -462h-53q-90 89 -142 212t-52 250t52 249.5t142 212.5h53q-144 -192 -144 -462z" />
    <glyph glyph-name="parenright" unicode=")" horiz-adv-x="323" 
d="M156 232q0 270 -144 462h53q90 -89 142 -212t52 -250t-52 -249.5t-142 -212.5h-53q144 192 144 462z" />
    <glyph glyph-name="asterisk" unicode="*" horiz-adv-x="417" 
d="M188 513l-128 44q-16 5 -27 15.5t-11 25.5q0 7 5 17q10 17 28 17q9 0 19 -5t19 -13l100 -87q11 9 20 11l-25 130q-2 10 -2 16q0 16 9 29t26 13q18 0 26 -12t8 -29q0 -5 -2 -17l-25 -130q13 -3 20 -12l100 87q8 7 18.5 12t20.5 5q17 0 27 -17q5 -8 5 -17
q0 -13 -11.5 -23.5t-27.5 -16.5l-125 -43q2 -6 0 -23l125 -43q16 -5 27 -15.5t11 -25.5q0 -7 -5 -16t-12.5 -13t-14.5 -4q-20 0 -39 17l-100 87q-10 -7 -20 -10l25 -131q2 -10 2 -16q0 -16 -9 -29t-26 -13t-25.5 11.5t-8.5 29.5q0 5 2 17l25 131q-12 5 -19 12l-101 -88
q-18 -16 -39 -16q-18 0 -27 16q-5 8 -5 17q0 13 11.5 23.5t27.5 16.5l127 44q-4 10 1 21z" />
    <glyph glyph-name="plus" unicode="+" horiz-adv-x="584" 
d="M251 589h82v-195h195v-82h-195v-195h-82v195h-195v82h195v195z" />
    <glyph glyph-name="comma" unicode="," horiz-adv-x="219" 
d="M59 -118v19q18 12 28.5 36t10.5 49q0 12 -3 24q-22 0 -35.5 15.5t-13.5 40.5q0 26 16.5 41.5t42.5 15.5q33 0 52 -26t19 -71q0 -47 -28 -85q-32 -43 -89 -59z" />
    <glyph glyph-name="hyphen" unicode="-" horiz-adv-x="584" 
d="M56 394h472v-82h-472v82z" />
    <glyph glyph-name="period" unicode="." horiz-adv-x="219" 
d="M109 111q25 0 42.5 -17.5t17.5 -42.5t-17.5 -42.5t-42.5 -17.5t-42.5 17.5t-17.5 42.5t17.5 42.5t42.5 17.5z" />
    <glyph glyph-name="slash" unicode="/" horiz-adv-x="281" 
d="M8 -9l196 700h70l-196 -700h-70z" />
    <glyph glyph-name="zero" unicode="0" 
d="M470 341q0 -158 -60 -254t-160 -96q-99 0 -159.5 96.5t-60.5 253.5q0 158 60 254t160 96q99 0 159.5 -96.5t60.5 -253.5zM372 341q0 120 -32.5 188.5t-89.5 68.5t-89.5 -68.5t-32.5 -188.5t32.5 -188.5t89.5 -68.5t89.5 68.5t32.5 188.5z" />
    <glyph glyph-name="one" unicode="1" 
d="M300 682v-682h-98v682h98z" />
    <glyph glyph-name="two" unicode="2" 
d="M466 93v-93h-432v7q50 60 81 99q53 65 85 109q43 59 70.5 105.5t38 76.5t10.5 70q0 56 -33 92t-84 36q-40 0 -77 -20.5t-77 -71.5v123q81 65 161 65q92 0 150 -59t58 -154q0 -80 -49 -166q-44 -77 -163 -219h261z" />
    <glyph glyph-name="three" unicode="3" 
d="M81 569v93q59 29 131 29q92 0 146.5 -48.5t54.5 -129.5q0 -57 -20 -92t-67 -61q48 -15 73 -60.5t25 -101.5q0 -91 -60 -149t-155 -58q-69 0 -145 39v106q77 -52 152 -52q51 0 80.5 29.5t29.5 79.5q0 52 -37.5 83t-108.5 31v90q135 0 135 99q0 47 -31.5 74.5t-86.5 27.5
q-51 0 -116 -29z" />
    <glyph glyph-name="four" unicode="4" 
d="M398 691v-379h73v-88h-73v-224h-98v224h-289v45l345 422h42zM142 312h158v194z" />
    <glyph glyph-name="five" unicode="5" 
d="M404 682v-88h-214v-171q115 0 181.5 -58.5t66.5 -155.5q0 -94 -63 -156t-160 -62q-82 0 -165 42v101q74 -50 149 -50q58 0 99.5 36.5t41.5 86.5q0 56 -43 93t-119 37q-37 0 -77 -10v355h303z" />
    <glyph glyph-name="six" unicode="6" 
d="M317 691l59 -75q-73 -43 -130.5 -111t-78.5 -139q24 12 50 20t57 8q81 0 136 -57t55 -142q0 -84 -59 -144t-142 -60q-98 0 -159 67t-61 175q0 130 70.5 250t202.5 208zM146 265q-6 -26 -6 -48q0 -61 35 -97t83 -36q49 0 79 31t30 81q0 45 -32 75t-81 30q-32 0 -53.5 -7
t-54.5 -29z" />
    <glyph glyph-name="seven" unicode="7" 
d="M490 682l-309 -691l-87 38l250 560h-295v93h441z" />
    <glyph glyph-name="eight" unicode="8" 
d="M468 184q0 -81 -62 -137t-154 -56t-156 56t-64 138q0 106 97 163q-81 59 -81 147q0 84 60 140t149 56q87 0 144 -56t57 -142q0 -41 -21 -79t-64 -66q46 -24 70.5 -67t24.5 -97zM360 495q0 45 -29 74t-76 29q-50 0 -79.5 -27.5t-29.5 -73.5q0 -43 31.5 -73.5t75.5 -30.5
q45 0 76 30t31 72zM370 192q0 46 -33 77t-85 31q-55 0 -88.5 -29.5t-33.5 -78.5q0 -48 33 -78t87 -30q57 0 88.5 31t31.5 77z" />
    <glyph glyph-name="nine" unicode="9" 
d="M187 -9l-60 72q84 55 139 122.5t69 133.5q-48 -29 -106 -29q-81 0 -137 58t-56 141q0 80 56 139q60 63 152 63q94 0 155.5 -70.5t61.5 -178.5q0 -123 -77 -250.5t-197 -200.5zM134 490q0 -44 33.5 -75.5t82.5 -31.5q25 0 51 8.5t54 28.5q3 13 4 28t1 27q0 50 -33.5 86.5
t-80.5 36.5q-49 0 -80.5 -30.5t-31.5 -77.5z" />
    <glyph glyph-name="colon" unicode=":" horiz-adv-x="219" 
d="M109 458q25 0 42.5 -17.5t17.5 -42.5t-17.5 -42.5t-42.5 -17.5t-42.5 17.5t-17.5 42.5t17.5 42.5t42.5 17.5zM109 111q25 0 42.5 -17.5t17.5 -42.5t-17.5 -42.5t-42.5 -17.5t-42.5 17.5t-17.5 42.5t17.5 42.5t42.5 17.5z" />
    <glyph glyph-name="semicolon" unicode=";" horiz-adv-x="219" 
d="M61 -115v19q27 23 35 51q5 18 5 56q-23 3 -38 19t-15 40q0 29 17 45t43 16q30 0 48.5 -26.5t18.5 -66.5q0 -56 -29 -96t-85 -57zM169 398q0 -25 -17.5 -42.5t-42.5 -17.5t-42.5 17.5t-17.5 42.5t17.5 42.5t42.5 17.5t42.5 -17.5t17.5 -42.5z" />
    <glyph glyph-name="less" unicode="&#x3c;" horiz-adv-x="584" 
d="M55 313v82l474 202v-87l-376 -156l376 -156v-87z" />
    <glyph glyph-name="equal" unicode="=" horiz-adv-x="584" 
d="M56 503h472v-82h-472v82zM56 285h472v-82h-472v82z" />
    <glyph glyph-name="greater" unicode="&#x3e;" horiz-adv-x="584" 
d="M529 313l-474 -202v87l376 156l-376 156v87l474 -202v-82z" />
    <glyph glyph-name="question" unicode="?" horiz-adv-x="333" 
d="M82 595l47 96q81 0 125 -49q36 -40 36 -96q0 -61 -39 -134q-37 -59 -73 -118q-40 -66 -40 -105q0 -9 1 -14q-31 16 -45 37.5t-14 54.5q0 55 56 139t56 128q0 29 -18 48t-48 19q-13 0 -26 -2.5t-18 -3.5zM154 111q25 0 42.5 -17.5t17.5 -42.5t-17.5 -42.5t-42.5 -17.5
t-42.5 17.5t-17.5 42.5t17.5 42.5t42.5 17.5z" />
    <glyph glyph-name="at" unicode="@" horiz-adv-x="1010" 
d="M891 9h90q-66 -108 -174 -163.5t-259 -55.5q-230 0 -362 117t-132 322q0 116 47 223q55 125 154 195q116 82 282 82q183 0 301 -107t118 -274q0 -134 -90 -242t-202 -108q-97 0 -97 82q-70 -81 -148 -81q-77 0 -128 62t-51 159q0 117 79 213t175 96q93 0 147 -90l17 76
h88l-82 -377q-3 -12 -3 -22q0 -38 35 -38q46 0 108 67q79 85 79 204q0 133 -99 221t-251 88q-176 0 -291 -119t-115 -302q0 -177 111 -276t311 -99q119 0 211 42q84 38 131 105zM331 213q0 -64 30 -103t78 -39q66 0 120 76t54 169q0 66 -30 104t-83 38q-65 0 -117 -75
t-52 -170z" />
    <glyph glyph-name="A" unicode="A" horiz-adv-x="667" 
d="M362 686l305 -686h-100l-91 201h-290l-86 -201h-100l293 686h69zM326 536l-102 -247h212z" />
    <glyph glyph-name="B" unicode="B" horiz-adv-x="563" 
d="M75 0v682h198q104 0 160 -54q50 -48 50 -120q0 -104 -104 -146q77 -16 120.5 -63.5t43.5 -116.5q0 -73 -52 -122q-63 -60 -182 -60h-234zM173 594v-204h65q144 0 144 109q0 43 -25 67q-30 28 -94 28h-90zM173 302v-214h123q78 0 116 35q30 28 30 73q0 49 -36 76
q-40 30 -115 30h-118z" />
    <glyph glyph-name="C" unicode="C" horiz-adv-x="708" 
d="M656 635v-105q-122 71 -235 71q-117 0 -194.5 -74.5t-77.5 -186.5q0 -115 76 -187t200 -72q119 0 238 77v-107q-56 -29 -114 -44.5t-133 -15.5q-176 0 -280 116q-88 99 -88 224q0 157 105.5 258.5t268.5 101.5q100 0 234 -56z" />
    <glyph glyph-name="D" unicode="D" horiz-adv-x="750" 
d="M76 0v682h265q176 0 276 -110q87 -96 87 -231q0 -138 -96 -236q-103 -105 -266 -105h-266zM174 594v-506h156q147 0 220 95q53 69 53 158q0 110 -67 178q-74 75 -211 75h-151z" />
    <glyph glyph-name="E" unicode="E" 
d="M462 682v-88h-289v-206h279v-88h-279v-212h298v-88h-396v682h387z" />
    <glyph glyph-name="F" unicode="F" horiz-adv-x="469" 
d="M440 682v-88h-266v-189h266v-88h-266v-317h-98v682h364z" />
    <glyph glyph-name="G" unicode="G" horiz-adv-x="740" 
d="M673 336v-289q-127 -56 -260 -56q-157 0 -260 98t-103 248t105 252t261 102q60 0 111.5 -12t131.5 -46v-99q-122 67 -245 67q-111 0 -187 -75t-76 -186q0 -113 77.5 -186t198.5 -73q35 0 72 7t76 20v140h-131v88h229z" />
    <glyph glyph-name="H" unicode="H" horiz-adv-x="729" 
d="M653 682v-682h-98v297h-382v-297h-98v682h98v-297h382v297h98z" />
    <glyph glyph-name="I" unicode="I" horiz-adv-x="250" 
d="M174 682v-682h-98v682h98z" />
    <glyph glyph-name="J" unicode="J" horiz-adv-x="250" 
d="M174 682v-690q0 -103 -42 -159q-47 -63 -146 -63l-30 2l-18 91h25q72 0 95 39q18 31 18 119v661h98z" />
    <glyph glyph-name="K" unicode="K" horiz-adv-x="656" 
d="M285 359l370 -359h-135l-347 337v-337h-98v682h98v-312l287 312h122z" />
    <glyph glyph-name="L" unicode="L" horiz-adv-x="490" 
d="M172 682v-594h308v-88h-406v682h98z" />
    <glyph glyph-name="M" unicode="M" horiz-adv-x="781" 
d="M709 682v-682h-98v531l-212 -264h-16l-210 264l-2 -531h-98v682h92l226 -280l227 280h91z" />
    <glyph glyph-name="N" unicode="N" horiz-adv-x="781" 
d="M706 682v-682h-84l-456 525v-525h-92v682h78l462 -528v528h92z" />
    <glyph glyph-name="O" unicode="O" horiz-adv-x="823" 
d="M45 341q0 146 100 246q104 104 266 104q165 0 268 -103q99 -99 99 -247q0 -144 -98 -244q-104 -106 -271 -106q-163 0 -266 105q-98 100 -98 245zM146 341q0 -112 75 -186t190 -74q114 0 190 74t76 186q0 113 -75.5 186.5t-190.5 73.5q-114 0 -189.5 -73.5t-75.5 -186.5z
" />
    <glyph glyph-name="P" unicode="P" horiz-adv-x="510" 
d="M70 682h213q107 0 164 -57q53 -53 53 -139t-55 -136q-60 -55 -175 -55h-102v-295h-98v682zM168 594v-211h111q55 0 87.5 28.5t32.5 78.5q0 44 -24 71q-30 33 -92 33h-115z" />
    <glyph glyph-name="Q" unicode="Q" horiz-adv-x="823" 
d="M496 0q132 -57 200 -57q26 0 55 8l3 -3l-88 -87q-89 0 -181 43q-65 31 -154 96q-127 24 -206.5 118.5t-79.5 222.5q0 154 105 252t271 98q153 0 256 -101t103 -251q0 -123 -80 -219t-204 -120zM417 601q-138 0 -212 -92q-59 -73 -59 -169q0 -110 68 -181q75 -78 205 -78
q112 0 186 75t74 182q0 112 -74.5 187.5t-187.5 75.5z" />
    <glyph glyph-name="R" unicode="R" horiz-adv-x="604" 
d="M77 682h172q104 0 164 -51t60 -140q0 -59 -29 -102t-85 -65q49 -33 97 -102q16 -23 55 -87q20 -32 40 -61q14 -20 53 -74h-117l-90 140q-62 97 -105 130q-34 26 -76 26h-41v-296h-98v682zM175 598v-214h63q73 0 106 34q28 28 28 77t-32.5 76t-101.5 27h-63z" />
    <glyph glyph-name="S" unicode="S" horiz-adv-x="458" 
d="M399 643v-111q-41 39 -81 55t-79 16q-48 0 -78 -22t-30 -59q0 -52 76 -99q140 -87 142 -89q77 -65 77 -158q0 -81 -54 -133t-137 -52q-107 0 -191 63v124q77 -99 180 -99q53 0 82 26.5t29 59.5q0 57 -76 110q-71 46 -142 93q-77 62 -77 141q0 84 56 133t151 49
q80 0 152 -48z" />
    <glyph glyph-name="T" unicode="T" horiz-adv-x="604" 
d="M587 682v-88h-236v-594h-98v594h-236v88h570z" />
    <glyph glyph-name="U" unicode="U" horiz-adv-x="708" 
d="M648 682v-414q0 -129 -75 -201q-79 -76 -228 -76q-119 0 -196 63q-88 72 -88 204v424h98v-403q0 -60 8 -87.5t33 -52.5q58 -58 147 -58q52 0 93.5 15t66 39.5t34 61.5t9.5 88v397h98z" />
    <glyph glyph-name="V" unicode="V" horiz-adv-x="604" 
d="M604 682l-289 -688h-20l-295 688h98l205 -479l204 479h97z" />
    <glyph glyph-name="W" unicode="W" horiz-adv-x="1042" 
d="M1041 682l-277 -688h-19l-224 558l-226 -558h-19l-276 688h98l188 -470l189 470h93l190 -470l186 470h97z" />
    <glyph glyph-name="X" unicode="X" horiz-adv-x="708" 
d="M687 682l-272 -329l291 -353h-118l-232 282l-235 -282h-119l294 353l-273 329h119l214 -260l213 260h118z" />
    <glyph glyph-name="Y" unicode="Y" horiz-adv-x="604" 
d="M301 447l185 235h118l-253 -322v-360h-98v361l-253 321h118z" />
    <glyph glyph-name="Z" unicode="Z" horiz-adv-x="646" 
d="M450 594h-407v88h588l-434 -594h434v-88h-615z" />
    <glyph glyph-name="bracketleft" unicode="[" horiz-adv-x="333" 
d="M319 682v-80h-137v-743h137v-80h-233v903h233z" />
    <glyph glyph-name="backslash" unicode="\" horiz-adv-x="281" 
d="M274 -9h-70l-196 700h70z" />
    <glyph glyph-name="bracketright" unicode="]" horiz-adv-x="333" 
d="M14 -221v80h137v743h-137v80h233v-903h-233z" />
    <glyph glyph-name="asciicircum" unicode="^" horiz-adv-x="469" 
d="M116 291h-90l173 391h71l173 -391h-89l-120 292z" />
    <glyph glyph-name="underscore" unicode="_" 
d="M-6 -75h512v-50h-512v50z" />
    <glyph glyph-name="grave" unicode="`" horiz-adv-x="333" 
d="M160 654l67 -147h-55l-112 147h100z" />
    <glyph glyph-name="a" unicode="a" horiz-adv-x="427" 
d="M411 80v-54q-29 -19 -48 -27t-38 -8q-56 0 -68 46q-58 -46 -121 -46q-48 0 -79 32t-31 78q0 58 49 94q29 21 104 48l79 28v24q0 79 -81 79q-39 0 -74 -17.5t-68 -56.5v97q52 61 149 61q73 0 116 -35q47 -39 47 -113v-231q0 -23 17 -23q15 0 47 24zM258 91v131
q-71 -24 -99 -42q-43 -27 -43 -63q0 -27 18 -45t46 -18q19 0 39.5 10t38.5 27z" />
    <glyph glyph-name="b" unicode="b" 
d="M148 682v-265q57 41 124 41q84 0 139 -63.5t55 -160.5q0 -114 -63.5 -178.5t-176.5 -64.5q-44 0 -88.5 9t-78.5 25v657h89zM148 332v-243q20 -6 45.5 -10t44.5 -4q59 0 98 41t39 105q0 71 -34 114t-91 43q-27 0 -50 -10t-52 -36z" />
    <glyph glyph-name="c" unicode="c" horiz-adv-x="438" 
d="M393 427v-95q-38 25 -65 34.5t-59 9.5q-61 0 -99 -42t-38 -110q0 -69 41 -109t111 -40q51 0 119 30v-88q-22 -10 -60.5 -18t-73.5 -8q-100 0 -164 63t-64 162q0 111 60.5 176.5t161.5 65.5q37 0 64.5 -7t65.5 -24z" />
    <glyph glyph-name="d" unicode="d" horiz-adv-x="510" 
d="M451 682v-682h-189q-100 0 -159 63t-59 172q0 97 63 160t161 63q24 0 45 -4t49 -14v242h89zM362 75v286q-23 9 -41.5 13t-41.5 4q-65 0 -104.5 -42.5t-39.5 -113.5q0 -69 29 -105q34 -42 108 -42h90z" />
    <glyph glyph-name="e" unicode="e" horiz-adv-x="479" 
d="M438 130v-86q-42 -28 -82.5 -40.5t-96.5 -12.5q-100 0 -161 73q-57 68 -57 166q0 102 58 165t152 63q91 0 143 -62.5t52 -184.5h-316q21 -135 151 -135q39 0 77.5 13.5t79.5 40.5zM132 270h226q0 50 -28.5 80.5t-76.5 30.5q-102 0 -121 -111z" />
    <glyph glyph-name="f" unicode="f" horiz-adv-x="250" 
d="M296 682v-87q-20 8 -40 8q-52 0 -73.5 -28t-21.5 -83v-43h81v-80h-81v-369h-89v369h-63v80h63v33q0 62 14 99.5t43 66.5q22 22 47 33t58 11q24 0 62 -10z" />
    <glyph glyph-name="g" unicode="g" horiz-adv-x="427" 
d="M421 449v-69h-92q25 -25 36 -48t11 -50q0 -26 -12.5 -55t-29.5 -46q-29 -31 -113 -46q-69 -12 -69 -39q0 -31 137 -58q68 -14 101 -48q29 -31 29 -77q0 -67 -56 -105t-156 -38q-91 0 -149 38t-58 98q0 96 113 124q-45 28 -45 57q0 22 19 39t52 25q-51 25 -75 59.5
t-24 83.5q0 72 52.5 113.5t143.5 41.5h185zM296 293q0 32 -25.5 55.5t-61.5 23.5q-37 0 -63 -24t-26 -57q0 -37 24.5 -59.5t65.5 -22.5q38 0 62 23t24 61zM333 -94q0 38 -53 57q-41 15 -94 15q-44 0 -73 -19t-29 -49q0 -69 125 -69q59 0 91.5 17t32.5 48z" />
    <glyph glyph-name="h" unicode="h" 
d="M150 682v-292q57 68 136 68q68 0 110.5 -47t42.5 -136v-275h-89v278q0 50 -23.5 79.5t-64.5 29.5q-31 0 -55 -14t-57 -51v-322h-89v682h89z" />
    <glyph glyph-name="i" unicode="i" horiz-adv-x="219" 
d="M154 449v-449h-89v449h89zM163 585q0 -22 -15.5 -37.5t-37.5 -15.5t-37.5 15.5t-15.5 37.5t15.5 37.5t37.5 15.5t37.5 -15.5t15.5 -37.5z" />
    <glyph glyph-name="j" unicode="j" horiz-adv-x="219" 
d="M150 449v-508q0 -69 -21 -107.5t-68 -63.5l-67 66q31 13 49 37.5t18 60.5v515h89zM159 585q0 -22 -15.5 -37.5t-37.5 -15.5t-37.5 15.5t-15.5 37.5t15.5 37.5t37.5 15.5t37.5 -15.5t15.5 -37.5z" />
    <glyph glyph-name="k" unicode="k" horiz-adv-x="479" 
d="M460 449l-192 -220l232 -229h-120l-225 229l199 220h106zM151 682v-682h-89v682h89z" />
    <glyph glyph-name="l" unicode="l" horiz-adv-x="219" 
d="M154 682v-682h-89v682h89z" />
    <glyph glyph-name="m" unicode="m" horiz-adv-x="771" 
d="M59 449h89v-59q68 68 131 68q88 0 134 -81q34 38 65 57q40 24 85 24q68 0 108.5 -47.5t40.5 -128.5v-282h-89v278q0 49 -26 77t-67 28q-22 0 -48.5 -15.5t-51.5 -41.5v-326h-89v279q0 51 -23 77.5t-58 26.5t-59.5 -12t-52.5 -45v-326h-89v449z" />
    <glyph glyph-name="n" unicode="n" 
d="M150 449v-59q57 68 136 68q67 0 108 -44q45 -49 45 -137v-277h-89v278q0 50 -23.5 79.5t-64.5 29.5q-31 0 -55 -14t-57 -51v-322h-89v449h89z" />
    <glyph glyph-name="o" unicode="o" horiz-adv-x="552" 
d="M273 458q106 0 174.5 -64.5t68.5 -164.5q0 -106 -67 -172t-176 -66q-103 0 -170 67t-67 171q0 97 68 163t169 66zM272 378q-63 0 -104 -42t-41 -107q0 -72 40 -115t105 -43q71 0 112 42t41 115q0 66 -43 108t-110 42z" />
    <glyph glyph-name="p" unicode="p" 
d="M146 11v-241h-89v679h154q123 0 188 -58t65 -170q0 -101 -63.5 -165.5t-164.5 -64.5q-41 0 -90 20zM146 369v-278q42 -20 84 -20q62 0 102.5 42.5t40.5 108.5q0 147 -146 147h-81z" />
    <glyph glyph-name="q" unicode="q" 
d="M354 -230v237q-53 -16 -90 -16q-100 0 -164 64t-64 166q0 82 43 141q63 87 200 87h164v-679h-89zM354 369h-81q-60 0 -100 -35q-46 -40 -46 -112q0 -67 40 -111.5t103 -44.5q42 0 84 20v283z" />
    <glyph glyph-name="r" unicode="r" horiz-adv-x="396" 
d="M69 449h89v-103q67 112 132 112q52 0 107 -52l-47 -77q-21 20 -43 32t-40 12q-45 0 -77 -40t-32 -98v-235h-89v449z" />
    <glyph glyph-name="s" unicode="s" horiz-adv-x="385" 
d="M324 421v-88q-36 24 -69.5 35.5t-60.5 11.5t-43 -11t-16 -30q0 -15 23.5 -34.5t85.5 -55.5q56 -37 78.5 -64.5t22.5 -61.5q0 -59 -41.5 -95.5t-106.5 -36.5q-43 0 -77.5 9t-78.5 32v96q86 -59 147 -59q28 0 47 13.5t19 37.5t-105 86t-105 130q0 56 40 89t108 33
q62 0 132 -37z" />
    <glyph glyph-name="t" unicode="t" horiz-adv-x="333" 
d="M167 542v-93h142v-80h-142v-230q0 -36 22 -54q17 -14 42 -14q47 0 101 33v-83q-55 -30 -108 -30q-70 0 -108 39t-38 102v237h-78v10z" />
    <glyph glyph-name="u" unicode="u" 
d="M437 0h-89v57q-28 -30 -64 -48t-69 -18q-71 0 -113 47t-42 132v279h89v-285q0 -99 92 -99q62 0 107 63v321h89v-449z" />
    <glyph glyph-name="v" unicode="v" horiz-adv-x="438" 
d="M206 -9l-203 458h97l121 -276l118 276h95l-198 -458h-30z" />
    <glyph glyph-name="w" unicode="w" horiz-adv-x="719" 
d="M393 449l114 -272l117 272h95l-198 -458h-28l-133 314l-132 -314h-28l-200 458h95l118 -272l114 272h66z" />
    <glyph glyph-name="x" unicode="x" 
d="M487 449l-185 -221l198 -228h-114l-141 161l-133 -161h-112l189 228l-189 221h112l133 -154l128 154h114z" />
    <glyph glyph-name="y" unicode="y" horiz-adv-x="438" 
d="M438 449l-318 -679h-99l153 326l-174 353h101l121 -253l116 253h100z" />
    <glyph glyph-name="z" unicode="z" horiz-adv-x="417" 
d="M404 449l-239 -369h240v-80h-394l238 369h-228v80h383z" />
    <glyph glyph-name="braceleft" unicode="{" horiz-adv-x="333" 
d="M28 219v80q58 0 81 43q20 37 20 120v88q0 91 30 132q34 46 112 46h39v-76h-15q-52 0 -68 -19t-16 -82v-72q0 -101 -22 -148t-80 -72q57 -24 79.5 -71.5t22.5 -148.5v-72q0 -63 15.5 -82t68.5 -19h15v-76h-39q-78 0 -110 43.5t-32 134.5v88q0 85 -19 120q-23 43 -82 43z
" />
    <glyph glyph-name="bar" unicode="|" horiz-adv-x="260" 
d="M92 -230v912h76v-912h-76z" />
    <glyph glyph-name="braceright" unicode="}" horiz-adv-x="333" 
d="M305 299v-80q-58 0 -79.5 -40t-21.5 -123v-88q0 -91 -30 -132q-34 -46 -112 -46h-39v76h15q52 0 68 19t16 82v72q0 101 22 148t80 72q-57 24 -79.5 71.5t-22.5 148.5v72q0 63 -15.5 82t-68.5 19h-15v76h39q78 0 110 -43.5t32 -134.5v-88q0 -85 19 -120q23 -43 82 -43z
" />
    <glyph glyph-name="asciitilde" unicode="~" horiz-adv-x="584" 
d="M25 198v83q34 29 70 45q42 19 79 19q27 0 62 -12q26 -9 65.5 -26.5t60.5 -25.5q34 -12 58 -12q31 0 67 18.5t73 48.5v-83q-33 -28 -71 -46t-75 -18q-26 0 -56.5 10.5t-71 28.5t-60.5 25q-34 12 -59 12q-35 0 -71 -19q-27 -14 -71 -48z" />
    <glyph glyph-name="quotesinglbase" unicode="&#x201a;" horiz-adv-x="219" 
d="M59 -115v19q27 23 35 51q5 18 5 56q-23 3 -38 19t-15 40q0 29 17 45t43 16q30 0 48.5 -26.5t18.5 -66.5q0 -56 -29 -96t-85 -57z" />
    <glyph glyph-name="florin" unicode="&#x192;" horiz-adv-x="552" 
d="M23 -198l17 76q48 -11 75 -11q48 0 58 59l90 524h-98l11 68h99l14 85q11 65 45.5 95.5t94.5 30.5q37 0 101 -19l-17 -75q-18 4 -38 9t-40 5q-29 0 -41.5 -18t-19.5 -62l-9 -51h99l-12 -68h-100l-93 -533q-12 -69 -41 -98t-89 -29q-47 0 -106 12z" />
    <glyph glyph-name="quotedblbase" unicode="&#x201e;" horiz-adv-x="427" 
d="M283 -115v19q27 23 35 51q5 18 5 56q-23 3 -38 19t-15 40q0 29 17 45t43 16q30 0 48.5 -26.5t18.5 -66.5q0 -56 -29 -96t-85 -57zM64 -115v19q27 23 35 51q5 18 5 56q-23 3 -38 19t-15 40q0 29 17 45t43 16q30 0 48.5 -26.5t18.5 -66.5q0 -56 -29 -96t-85 -57z" />
    <glyph glyph-name="ellipsis" unicode="&#x2026;" horiz-adv-x="1000" 
d="M166 111q-25 0 -42.5 -17.5t-17.5 -42.5t17.5 -42.5t42.5 -17.5t42.5 17.5t17.5 42.5t-17.5 42.5t-42.5 17.5zM500 111q25 0 42.5 -17.5t17.5 -42.5t-17.5 -42.5t-42.5 -17.5t-42.5 17.5t-17.5 42.5t17.5 42.5t42.5 17.5zM834 111q-25 0 -42.5 -17.5t-17.5 -42.5
t17.5 -42.5t42.5 -17.5t42.5 17.5t17.5 42.5t-17.5 42.5t-42.5 17.5z" />
    <glyph glyph-name="dagger" unicode="&#x2020;" horiz-adv-x="490" 
d="M249 691q45 0 45 -94q0 -33 -10 -85.5t-19 -97.5q38 13 68 19.5t59 6.5q27 0 49 -11t22 -33q0 -23 -20 -34.5t-47 -11.5q-25 0 -66 9q-16 4 -66 17q22 -254 24 -283q8 -110 8 -161q0 -78 -9 -114q-12 -48 -43 -48t-42 34.5t-11 108.5q0 69 12 218.5t22 244.5
q-31 -10 -66.5 -18t-60.5 -8q-28 0 -47 9q-24 12 -24 34q0 20 15 32q19 15 58 15q27 0 60.5 -7.5t64.5 -18.5q-10 50 -19 101.5t-9 80.5q0 46 12.5 70.5t39.5 24.5z" />
    <glyph glyph-name="daggerdbl" unicode="&#x2021;" horiz-adv-x="531" 
d="M333 374v-88h-102l-50 -189q22 2 27 2h13q29 0 53 -1.5t41.5 -4.5t41.5 -6t38 -3q67 0 101 20v-95q-24 -8 -49 -12.5t-37 -5t-19 -0.5q-20 0 -43 3t-41.5 5.5t-41 4.5t-44.5 2q-85 0 -162 -15l79 295h-72v88h95q42 144 92 218q67 99 159 99h22q11 -3 15 -4l52 -98h-11
q-12 5 -26.5 7t-26.5 2q-62 0 -104 -52t-76 -172h76z" />
    <glyph glyph-name="circumflex" unicode="&#x2c6;" horiz-adv-x="333" 
d="M212 657l94 -151h-55l-87 87l-83 -87h-53l91 151h93z" />
    <glyph glyph-name="perthousand" unicode="&#x2030;" horiz-adv-x="1010" 
d="M845 222q-33 0 -56 -23t-23 -56t23 -56t56 -23t56 23t23 56q0 32 -22.5 55.5t-56.5 23.5zM845 296q62 0 107.5 -44.5t45.5 -108.5q0 -63 -45 -108t-108 -45q-64 0 -108.5 44.5t-44.5 108.5q0 63 45 108t108 45zM585 691l-449 -701h-75l449 701h75zM482 296
q62 0 107.5 -44.5t45.5 -108.5q0 -63 -45 -108t-108 -45q-64 0 -108.5 44.5t-44.5 108.5q0 63 45 108t108 45zM482 222q-33 0 -56 -23t-23 -56t23 -56t56 -23t56 23t23 56q0 32 -22.5 55.5t-56.5 23.5zM166 690q62 0 107.5 -44.5t45.5 -108.5q0 -63 -45 -108t-108 -45
q-64 0 -108.5 44.5t-44.5 108.5q0 63 45 108t108 45zM166 616q-33 0 -56 -23t-23 -56t23 -56t56 -23t56 23t23 56q0 32 -22.5 55.5t-56.5 23.5z" />
    <glyph glyph-name="guilsinglleft" unicode="&#x2039;" horiz-adv-x="313" 
d="M123 225l148 -225h-88l-147 225l147 225h88z" />
    <glyph glyph-name="quoteleft" unicode="&#x2018;" horiz-adv-x="219" 
d="M160 691v-19q-27 -23 -33.5 -46t-6.5 -61q23 -3 38 -19t15 -40q0 -29 -17 -45t-43 -16q-30 0 -48.5 26.5t-18.5 66.5q0 56 29 96t85 57z" />
    <glyph glyph-name="quoteright" unicode="&#x2019;" horiz-adv-x="219" 
d="M59 445v19q27 23 35 51q5 18 5 56q-23 3 -38 19t-15 40q0 29 17 45t43 16q30 0 48.5 -26.5t18.5 -66.5q0 -56 -29 -96t-85 -57z" />
    <glyph glyph-name="quotedblleft" unicode="&#x201c;" horiz-adv-x="427" 
d="M373 691v-19q-27 -23 -33.5 -46t-6.5 -61q23 -3 38 -19t15 -40q0 -29 -17 -45t-43 -16q-30 0 -48.5 26.5t-18.5 66.5q0 56 29 96t85 57zM155 691v-19q-27 -23 -33.5 -46t-6.5 -61q23 -3 38 -19t15 -40q0 -29 -17 -45t-43 -16q-30 0 -48.5 26.5t-18.5 66.5q0 56 29 96
t85 57z" />
    <glyph glyph-name="quotedblright" unicode="&#x201d;" horiz-adv-x="427" 
d="M272 445v19q27 23 35 51q5 18 5 56q-23 3 -38 19t-15 40q0 29 17 45t43 16q30 0 48.5 -26.5t18.5 -66.5q0 -56 -29 -96t-85 -57zM54 445v19q27 23 35 51q5 18 5 56q-23 3 -38 19t-15 40q0 29 17 45t43 16q30 0 48.5 -26.5t18.5 -66.5q0 -56 -29 -96t-85 -57z" />
    <glyph glyph-name="bullet" unicode="&#x2022;" horiz-adv-x="354" 
d="M177 465q51 0 87.5 -36.5t36.5 -87.5t-36.5 -87.5t-87.5 -36.5t-87.5 36.5t-36.5 87.5t36.5 87.5t87.5 36.5z" />
    <glyph glyph-name="endash" unicode="&#x2013;" 
d="M509 285v-64h-518v64h518z" />
    <glyph glyph-name="emdash" unicode="&#x2014;" horiz-adv-x="1000" 
d="M1009 285v-64h-1018v64h1018z" />
    <glyph glyph-name="tilde" unicode="&#x2dc;" horiz-adv-x="333" 
d="M275 643h38q0 -54 -22 -86t-57 -32q-27 0 -55 10q-70 25 -84 25q-29 0 -34 -35h-41q0 55 21 85t57 30q26 0 58 -10q81 -25 83 -25q30 0 36 38z" />
    <glyph glyph-name="trademark" unicode="&#x2122;" horiz-adv-x="1000" 
d="M239 318v339h-129v59h325v-59h-130v-339h-66zM480 318v398h98l99 -318l98 318h96v-398h-61v334l-102 -334h-60l-105 339l-2 -339h-61z" />
    <glyph glyph-name="guilsinglright" unicode="&#x203a;" horiz-adv-x="313" 
d="M190 225l-148 225h88l147 -225l-147 -225h-88z" />
    <glyph glyph-name="nonbreakingspace" unicode="&#xa0;" 
 />
    <glyph glyph-name="exclamdown" unicode="&#xa1;" horiz-adv-x="271" 
d="M136 -192q-56 0 -56 148q0 66 6 107l25 172q9 63 25 63t25 -63l25 -172q6 -41 6 -107q0 -148 -56 -148zM135 388q-25 0 -42.5 17.5t-17.5 42.5t17.5 42.5t42.5 17.5t42.5 -17.5t17.5 -42.5t-17.5 -42.5t-42.5 -17.5z" />
    <glyph glyph-name="cent" unicode="&#xa2;" horiz-adv-x="438" 
d="M408 620l-63 -175q15 -6 26.5 -10.5t18.5 -8.5v-94q-32 26 -73 36l-102 -281q32 -13 69 -13q61 0 116 31v-86q-40 -14 -73 -21t-68 -7t-74 9l-69 -190h-47l77 209q-48 27 -78 81t-30 116q0 107 59.5 174.5t164.5 67.5q20 0 41 -3l59 165h46zM178 109l96 266
q-66 0 -105.5 -44.5t-39.5 -109.5q0 -69 49 -112z" />
    <glyph glyph-name="sterling" unicode="&#xa3;" horiz-adv-x="427" 
d="M283 -115v19q27 23 35 51q5 18 5 56q-23 3 -38 19t-15 40q0 29 17 45t43 16q30 0 48.5 -26.5t18.5 -66.5q0 -56 -29 -96t-85 -57zM64 -115v19q27 23 35 51q5 18 5 56q-23 3 -38 19t-15 40q0 29 17 45t43 16q30 0 48.5 -26.5t18.5 -66.5q0 -56 -29 -96t-85 -57z" />
    <glyph glyph-name="currency" unicode="&#xa4;" horiz-adv-x="552" 
d="M448 226l67 -67l-57 -57l-67 67q-23 -16 -52.5 -25.5t-62.5 -9.5q-34 0 -62 9t-53 26l-67 -67l-57 57l67 67q-16 23 -25.5 51.5t-9.5 63.5t9 62.5t26 52.5l-67 67l57 57l67 -67q20 14 52 24.5t63 10.5q62 0 115 -35l67 67l57 -57l-67 -67q16 -22 25.5 -56t9.5 -59
q0 -29 -10 -61t-25 -54zM276 468q-53 0 -90 -37t-37 -90t37 -90t90 -37t90 37t37 90t-37 90t-90 37z" />
    <glyph glyph-name="yen" unicode="&#xa5;" horiz-adv-x="552" 
d="M233 0v159h-203v67h203v70h-203v73h167l-198 347h98l180 -322l173 322h103l-196 -347h165v-73h-200v-70h200v-67h-200v-159h-89z" />
    <glyph glyph-name="brokenbar" unicode="&#xa6;" horiz-adv-x="260" 
d="M92 -230v406h76v-406h-76zM92 342v340h76v-340h-76z" />
    <glyph glyph-name="section" unicode="&#xa7;" horiz-adv-x="406" 
d="M150 559q0 -53 58 -114l108 -110q58 -72 58 -152q0 -77 -74 -151q35 -52 35 -113q0 -64 -45.5 -106.5t-113.5 -42.5q-47 0 -80 26t-33 65q0 25 16.5 42.5t39.5 17.5q21 0 34 -14t13 -33q0 -4 -1 -8q-4 -14 -4 -17q0 -15 24 -15q28 0 50 21t22 50q0 50 -58 115
q-54 59 -108 119q-59 78 -59 157q0 84 66 144q-12 21 -20 47.5t-8 50.5q0 52 32 95q43 58 121 58q51 0 84 -24t33 -61q0 -24 -14.5 -39.5t-37.5 -15.5q-17 0 -28.5 12.5t-11.5 26.5q0 21 -4 29t-25 8q-32 0 -50.5 -18t-18.5 -50zM140 384q-32 -32 -32 -72q0 -62 71 -138
l80 -84q19 19 28 41t9 44q0 54 -53 110q-52 49 -103 99z" />
    <glyph glyph-name="dieresis" unicode="&#xa8;" 
d="M462 682v-88h-289v-206h279v-88h-279v-212h298v-88h-396v682h387zM158 848q20 0 33 -13t13 -33q0 -19 -13 -33t-33 -14t-33.5 13.5t-13.5 33.5t13 33t34 13zM344 848q20 0 33 -13t13 -33q0 -19 -13 -33t-33 -14t-33.5 13.5t-13.5 33.5t13 33t34 13z" />
    <glyph glyph-name="copyright" unicode="&#xa9;" horiz-adv-x="740" 
d="M488 300l60 -18q-15 -63 -63 -98t-119 -35q-87 0 -138 58t-51 158q0 91 54 146t143 55q133 0 167 -115l-58 -14q-30 75 -114 75q-57 0 -91 -43t-34 -114q0 -70 33.5 -109.5t92.5 -39.5q43 0 75 25.5t43 68.5zM738 360q0 -153 -108 -261t-261 -108q-152 0 -260 108
t-108 261t107.5 260.5t260.5 107.5t261 -107t108 -261zM677 360q0 127 -90 217t-218 90t-217.5 -89.5t-89.5 -217.5t89 -218t218 -90q128 0 218 90t90 218z" />
    <glyph glyph-name="ordfeminine" unicode="&#xaa;" horiz-adv-x="708" 
d="M656 635v-105q-122 71 -235 71q-104 0 -177.5 -59t-90.5 -154h357v-88h-358q14 -98 88 -158.5t185 -60.5q119 0 238 77v-107q-56 -29 -114 -44.5t-133 -15.5q-176 0 -280 116q-88 99 -88 224q0 157 105.5 258.5t268.5 101.5q100 0 234 -56z" />
    <glyph glyph-name="guillemotleft" unicode="&#xab;" horiz-adv-x="490" 
d="M320 225l148 -225h-88l-147 225l147 225h88zM117 225l148 -225h-88l-147 225l147 225h88z" />
    <glyph glyph-name="logicalnot" unicode="&#xac;" horiz-adv-x="584" 
d="M528 126h-82v213h-391v82h473v-295z" />
    <glyph glyph-name="minus" unicode="&#xad;" horiz-adv-x="323" 
d="M283 267v-93h-243v93h243z" />
    <glyph glyph-name="registered" unicode="&#xae;" horiz-adv-x="740" 
d="M208 156v396h175q66 0 102 -36q29 -29 29 -68q0 -49 -31.5 -81.5t-81.5 -32.5q23 -9 46 -36q19 -22 46 -65l48 -77h-78l-35 62q-38 67 -59.5 86.5t-58.5 19.5h-38v-168h-64zM272 379h92q38 0 60 15t22 45q0 27 -19 43t-52 16h-103v-119zM677 360q0 127 -90 217t-218 90
t-217.5 -89.5t-89.5 -217.5t89 -218t218 -90q128 0 218 90t90 218zM738 360q0 -153 -108 -261t-261 -108q-152 0 -260 108t-108 261t107.5 260.5t260.5 107.5t261 -107t108 -261z" />
    <glyph glyph-name="macron" unicode="&#xaf;" horiz-adv-x="250" 
d="M174 682v-682h-98v682h98zM33 848q20 0 33 -13t13 -33q0 -19 -13 -33t-33 -14t-33.5 13.5t-13.5 33.5t13 33t34 13zM219 848q20 0 33 -13t13 -33q0 -19 -13 -33t-33 -14t-33.5 13.5t-13.5 33.5t13 33t34 13z" />
    <glyph glyph-name="degree" unicode="&#xb0;" horiz-adv-x="396" 
d="M197 675q-35 0 -58.5 -23.5t-23.5 -58.5t23 -59t59 -24q35 0 59 24t24 59q0 34 -24 58t-59 24zM197 728q57 0 96 -39t39 -96t-39 -96t-96 -39t-96 39t-39 96t39 96t96 39z" />
    <glyph glyph-name="plusminus" unicode="&#xb1;" horiz-adv-x="584" 
d="M56 82h472v-82h-472v82zM251 589h82v-195h195v-82h-195v-195h-82v195h-195v82h195v195z" />
    <glyph glyph-name="twosuperior" unicode="&#xb2;" horiz-adv-x="250" 
d="M174 682v-682h-98v682h98z" />
    <glyph glyph-name="threesuperior" unicode="&#xb3;" horiz-adv-x="219" 
d="M154 449v-449h-89v449h89zM163 585q0 -22 -15.5 -37.5t-37.5 -15.5t-37.5 15.5t-15.5 37.5t15.5 37.5t37.5 15.5t37.5 -15.5t15.5 -37.5z" />
    <glyph glyph-name="acute" unicode="&#xb4;" horiz-adv-x="333" 
d="M178 654h100l-112 -147h-55z" />
    <glyph glyph-name="mu" unicode="&#xb5;" horiz-adv-x="552" 
d="M469 449v-449h-82v53q-20 -33 -45 -47.5t-62 -14.5q-33 0 -57.5 12.5t-44.5 41.5l-2 -217h-89v621h89v-248q0 -71 26.5 -107t72.5 -36q49 0 77 37.5t28 103.5v250h89z" />
    <glyph glyph-name="paragraph" unicode="&#xb6;" horiz-adv-x="542" 
d="M198 -199v510q-91 0 -144 56t-53 147q0 96 60 149t170 53h309v-80h-70v-835h-83v835h-109v-835h-80z" />
    <glyph glyph-name="periodcentered" unicode="&#xb7;" horiz-adv-x="260" 
d="M130 405q25 0 42.5 -17.5t17.5 -42.5t-17.5 -42.5t-42.5 -17.5t-42.5 17.5t-17.5 42.5t17.5 42.5t42.5 17.5z" />
    <glyph glyph-name="periodcentered" unicode="&#x2219;" horiz-adv-x="260" 
d="M130 405q25 0 42.5 -17.5t17.5 -42.5t-17.5 -42.5t-42.5 -17.5t-42.5 17.5t-17.5 42.5t17.5 42.5t42.5 17.5z" />
    <glyph glyph-name="cedilla" unicode="&#xb8;" horiz-adv-x="479" 
d="M438 130v-86q-42 -28 -82.5 -40.5t-96.5 -12.5q-100 0 -161 73q-57 68 -57 166q0 102 58 165t152 63q91 0 143 -62.5t52 -184.5h-316q21 -135 151 -135q39 0 77.5 13.5t79.5 40.5zM132 270h226q0 50 -28.5 80.5t-76.5 30.5q-102 0 -121 -111zM147 628q20 0 33 -13t13 -33
q0 -19 -13 -33t-33 -14t-33.5 13.5t-13.5 33.5t13 33t34 13zM333 628q20 0 33 -13t13 -33q0 -19 -13 -33t-33 -14t-33.5 13.5t-13.5 33.5t13 33t34 13z" />
    <glyph glyph-name="onesuperior" unicode="&#xb9;" horiz-adv-x="1146" 
d="M706 682v-682h-84l-456 525v-525h-92v682h78l462 -528v528h92zM1093 239q0 -61 -45 -101t-115 -40q-69 0 -114 40t-45 101t45 101t114 40t114.5 -40.5t45.5 -100.5zM1024 239q0 40 -24.5 63.5t-65.5 23.5t-66 -24t-25 -63t25 -63t66 -24q40 0 65 24t25 63zM1093 74v-53
h-319v53h319z" />
    <glyph glyph-name="ordmasculine" unicode="&#xba;" horiz-adv-x="438" 
d="M393 427v-95q-38 25 -65 34.5t-59 9.5q-47 0 -82.5 -27.5t-47.5 -72.5h159v-76h-165q8 -59 47.5 -92t103.5 -33q51 0 119 30v-88q-22 -10 -60.5 -18t-73.5 -8q-100 0 -164 63t-64 162q0 111 60.5 176.5t161.5 65.5q37 0 64.5 -7t65.5 -24z" />
    <glyph glyph-name="guillemotright" unicode="&#xbb;" horiz-adv-x="490" 
d="M373 225l-148 225h88l147 -225l-147 -225h-88zM170 225l-148 225h88l147 -225l-147 -225h-88z" />
    <glyph glyph-name="onequarter" unicode="&#xbc;" horiz-adv-x="584" 
d="M56 394h472v-82h-472v82zM292 259q22 0 37.5 -15.5t15.5 -37.5t-15.5 -37.5t-37.5 -15.5t-37.5 15.5t-15.5 37.5t15.5 37.5t37.5 15.5zM292 553q22 0 37.5 -15.5t15.5 -37.5t-15.5 -37.5t-37.5 -15.5t-37.5 15.5t-15.5 37.5t15.5 37.5t37.5 15.5z" />
    <glyph glyph-name="onehalf" unicode="&#xbd;" horiz-adv-x="584" 
d="M79 200l154 154l-154 154l59 59l154 -154l153 153l59 -59l-153 -153l153 -153l-59 -59l-153 153l-154 -154z" />
    <glyph glyph-name="threequarters" unicode="&#xbe;" horiz-adv-x="1000" 
d="M166 111q-25 0 -42.5 -17.5t-17.5 -42.5t17.5 -42.5t42.5 -17.5t42.5 17.5t17.5 42.5t-17.5 42.5t-42.5 17.5zM500 111q25 0 42.5 -17.5t17.5 -42.5t-17.5 -42.5t-42.5 -17.5t-42.5 17.5t-17.5 42.5t17.5 42.5t42.5 17.5zM834 111q-25 0 -42.5 -17.5t-17.5 -42.5
t17.5 -42.5t42.5 -17.5t42.5 17.5t17.5 42.5t-17.5 42.5t-42.5 17.5z" />
    <glyph glyph-name="questiondown" unicode="&#xbf;" horiz-adv-x="219" 
d="M154 449v-449h-89v449h89zM17 628q20 0 33 -13t13 -33q0 -19 -13 -33t-33 -14t-33.5 13.5t-13.5 33.5t13 33t34 13zM203 628q20 0 33 -13t13 -33q0 -19 -13 -33t-33 -14t-33.5 13.5t-13.5 33.5t13 33t34 13z" />
    <glyph glyph-name="Agrave" unicode="&#xc0;" horiz-adv-x="667" 
d="M362 686l305 -686h-100l-91 201h-290l-86 -201h-100l293 686h69zM326 536l-102 -247h212z" />
    <glyph glyph-name="Agrave" unicode="&#x410;" horiz-adv-x="667" 
d="M362 686l305 -686h-100l-91 201h-290l-86 -201h-100l293 686h69zM326 536l-102 -247h212z" />
    <glyph glyph-name="Aacute" unicode="&#xc1;" horiz-adv-x="563" 
d="M306 0h-232v682h390v-88h-292v-203h121q112 0 175 -57q58 -53 58 -138t-54 -138q-59 -58 -166 -58zM172 303v-215h136q60 0 90 33q25 28 25 70q0 52 -34 82t-90 30h-127z" />
    <glyph glyph-name="Aacute" unicode="&#x411;" horiz-adv-x="563" 
d="M306 0h-232v682h390v-88h-292v-203h121q112 0 175 -57q58 -53 58 -138t-54 -138q-59 -58 -166 -58zM172 303v-215h136q60 0 90 33q25 28 25 70q0 52 -34 82t-90 30h-127z" />
    <glyph glyph-name="Acircumflex" unicode="&#xc2;" horiz-adv-x="563" 
d="M75 0v682h198q104 0 160 -54q50 -48 50 -120q0 -104 -104 -146q77 -16 120.5 -63.5t43.5 -116.5q0 -73 -52 -122q-63 -60 -182 -60h-234zM173 594v-204h65q144 0 144 109q0 43 -25 67q-30 28 -94 28h-90zM173 302v-214h123q78 0 116 35q30 28 30 73q0 49 -36 76
q-40 30 -115 30h-118z" />
    <glyph glyph-name="Acircumflex" unicode="&#x412;" horiz-adv-x="563" 
d="M75 0v682h198q104 0 160 -54q50 -48 50 -120q0 -104 -104 -146q77 -16 120.5 -63.5t43.5 -116.5q0 -73 -52 -122q-63 -60 -182 -60h-234zM173 594v-204h65q144 0 144 109q0 43 -25 67q-30 28 -94 28h-90zM173 302v-214h123q78 0 116 35q30 28 30 73q0 49 -36 76
q-40 30 -115 30h-118z" />
    <glyph glyph-name="Atilde" unicode="&#xc3;" horiz-adv-x="490" 
d="M172 0v594h308v88h-406v-682h98z" />
    <glyph glyph-name="Atilde" unicode="&#x413;" horiz-adv-x="490" 
d="M172 0v594h308v88h-406v-682h98z" />
    <glyph glyph-name="Adieresis" unicode="&#xc4;" horiz-adv-x="776" 
d="M20 88h45q70 78 102 177q42 128 42 339v78h459v-594h77v-275h-88v187h-547v-187h-90v275zM177 88h393v505h-268v-55q0 -149 -35.5 -270.5t-89.5 -179.5z" />
    <glyph glyph-name="Adieresis" unicode="&#x414;" horiz-adv-x="776" 
d="M20 88h45q70 78 102 177q42 128 42 339v78h459v-594h77v-275h-88v187h-547v-187h-90v275zM177 88h393v505h-268v-55q0 -149 -35.5 -270.5t-89.5 -179.5z" />
    <glyph glyph-name="Aring" unicode="&#xc5;" 
d="M462 682v-88h-289v-206h279v-88h-279v-212h298v-88h-396v682h387z" />
    <glyph glyph-name="Aring" unicode="&#x415;" 
d="M462 682v-88h-289v-206h279v-88h-279v-212h298v-88h-396v682h387z" />
    <glyph glyph-name="AE" unicode="&#xc6;" horiz-adv-x="934" 
d="M512 383h19q46 0 72 29t53 104q32 88 65 129q38 46 88 46q17 0 33.5 -2.5t33.5 -6.5v-84q-5 2 -20 4.5t-25 2.5q-31 0 -52 -30q-13 -19 -37 -80t-43 -92q-27 -43 -58 -59q47 -16 102 -82q35 -43 88 -127q18 -31 36 -59.5t52 -75.5h-113l-90 140q-62 99 -107 131
q-33 24 -78 24h-19v-295h-98v295h-19q-44 0 -77 -24q-47 -34 -108 -131l-90 -140h-113q32 45 59 88q19 30 29 47q53 84 87 126q55 67 103 83q-30 16 -57 58q-21 33 -44 91q-19 50 -27 65q-24 47 -62 47q-15 0 -24.5 -1.5t-20.5 -5.5v84q15 4 31.5 6.5t35.5 2.5q50 0 87 -45
q34 -41 66 -130q26 -73 53 -103t72 -30h19v299h98v-299z" />
    <glyph glyph-name="AE" unicode="&#x416;" horiz-adv-x="934" 
d="M512 383h19q46 0 72 29t53 104q32 88 65 129q38 46 88 46q17 0 33.5 -2.5t33.5 -6.5v-84q-5 2 -20 4.5t-25 2.5q-31 0 -52 -30q-13 -19 -37 -80t-43 -92q-27 -43 -58 -59q47 -16 102 -82q35 -43 88 -127q18 -31 36 -59.5t52 -75.5h-113l-90 140q-62 99 -107 131
q-33 24 -78 24h-19v-295h-98v295h-19q-44 0 -77 -24q-47 -34 -108 -131l-90 -140h-113q32 45 59 88q19 30 29 47q53 84 87 126q55 67 103 83q-30 16 -57 58q-21 33 -44 91q-19 50 -27 65q-24 47 -62 47q-15 0 -24.5 -1.5t-20.5 -5.5v84q15 4 31.5 6.5t35.5 2.5q50 0 87 -45
q34 -41 66 -130q26 -73 53 -103t72 -30h19v299h98v-299z" />
    <glyph glyph-name="Ccedilla" unicode="&#xc7;" horiz-adv-x="529" 
d="M149 305v88h51q85 0 128 26t43 73q0 55 -37.5 83t-122.5 28q-37 0 -77 -12t-87 -36v92q40 19 81 30q53 14 108 14q106 0 171 -50t65 -132q0 -61 -30.5 -96.5t-91.5 -55.5q64 -15 103 -58t39 -104q0 -93 -70.5 -148.5t-189.5 -55.5q-59 0 -108 10t-106 36v96
q53 -28 104 -41t108 -13q71 0 116 30.5t45 80.5q0 55 -35.5 85t-113.5 30h-93z" />
    <glyph glyph-name="Ccedilla" unicode="&#x417;" horiz-adv-x="529" 
d="M149 305v88h51q85 0 128 26t43 73q0 55 -37.5 83t-122.5 28q-37 0 -77 -12t-87 -36v92q40 19 81 30q53 14 108 14q106 0 171 -50t65 -132q0 -61 -30.5 -96.5t-91.5 -55.5q64 -15 103 -58t39 -104q0 -93 -70.5 -148.5t-189.5 -55.5q-59 0 -108 10t-106 36v96
q53 -28 104 -41t108 -13q71 0 116 30.5t45 80.5q0 55 -35.5 85t-113.5 30h-93z" />
    <glyph glyph-name="Egrave" unicode="&#xc8;" horiz-adv-x="763" 
d="M77 0v682h98v-529l436 529h82v-682h-98v531l-436 -531h-82z" />
    <glyph glyph-name="Egrave" unicode="&#x418;" horiz-adv-x="763" 
d="M77 0v682h98v-529l436 529h82v-682h-98v531l-436 -531h-82z" />
    <glyph glyph-name="Eacute" unicode="&#xc9;" horiz-adv-x="766" 
d="M72 0v682h98v-529l436 529h82v-682h-98v531l-436 -531h-82zM551 847h-83q-12 -32 -32.5 -45.5t-59.5 -13.5q-37 0 -59 14t-33 45h-83q13 -60 59.5 -98t115.5 -38q70 0 115.5 37t59.5 99z" />
    <glyph glyph-name="Eacute" unicode="&#x419;" horiz-adv-x="766" 
d="M72 0v682h98v-529l436 529h82v-682h-98v531l-436 -531h-82zM551 847h-83q-12 -32 -32.5 -45.5t-59.5 -13.5q-37 0 -59 14t-33 45h-83q13 -60 59.5 -98t115.5 -38q70 0 115.5 37t59.5 99z" />
    <glyph glyph-name="Ecircumflex" unicode="&#xca;" horiz-adv-x="575" 
d="M153 383h38q46 0 72 29t53 104q32 88 65 129q38 46 88 46q17 0 33.5 -2.5t33.5 -6.5v-84q-5 2 -20 4.5t-25 2.5q-31 0 -52 -30q-13 -19 -37 -80t-43 -92q-27 -43 -58 -59q47 -16 102 -82q35 -43 88 -127q18 -31 36 -59.5t52 -75.5h-113l-90 140q-62 99 -107 131
q-33 24 -78 24h-38v-295h-98v682h98v-299z" />
    <glyph glyph-name="Ecircumflex" unicode="&#x41a;" horiz-adv-x="575" 
d="M153 383h38q46 0 72 29t53 104q32 88 65 129q38 46 88 46q17 0 33.5 -2.5t33.5 -6.5v-84q-5 2 -20 4.5t-25 2.5q-31 0 -52 -30q-13 -19 -37 -80t-43 -92q-27 -43 -58 -59q47 -16 102 -82q35 -43 88 -127q18 -31 36 -59.5t52 -75.5h-113l-90 140q-62 99 -107 131
q-33 24 -78 24h-38v-295h-98v682h98v-299z" />
    <glyph glyph-name="Edieresis" unicode="&#xcb;" horiz-adv-x="700" 
d="M108 684h523v-684h-98v596h-327v-382q0 -102 -42 -158q-47 -63 -144 -63l-30 1l-15 89h23q71 0 93 40q17 31 17 118v443z" />
    <glyph glyph-name="Edieresis" unicode="&#x41b;" horiz-adv-x="700" 
d="M108 684h523v-684h-98v596h-327v-382q0 -102 -42 -158q-47 -63 -144 -63l-30 1l-15 89h23q71 0 93 40q17 31 17 118v443z" />
    <glyph glyph-name="Igrave" unicode="&#xcc;" horiz-adv-x="781" 
d="M709 682v-682h-98v531l-212 -264h-16l-210 264l-2 -531h-98v682h92l226 -280l227 280h91z" />
    <glyph glyph-name="Igrave" unicode="&#x41c;" horiz-adv-x="781" 
d="M709 682v-682h-98v531l-212 -264h-16l-210 264l-2 -531h-98v682h92l226 -280l227 280h91z" />
    <glyph glyph-name="Iacute" unicode="&#xcd;" horiz-adv-x="729" 
d="M653 682v-682h-98v297h-382v-297h-98v682h98v-297h382v297h98z" />
    <glyph glyph-name="Iacute" unicode="&#x41d;" horiz-adv-x="729" 
d="M653 682v-682h-98v297h-382v-297h-98v682h98v-297h382v297h98z" />
    <glyph glyph-name="Icircumflex" unicode="&#xce;" horiz-adv-x="823" 
d="M45 341q0 146 100 246q104 104 266 104q165 0 268 -103q99 -99 99 -247q0 -144 -98 -244q-104 -106 -271 -106q-163 0 -266 105q-98 100 -98 245zM146 341q0 -112 75 -186t190 -74q114 0 190 74t76 186q0 113 -75.5 186.5t-190.5 73.5q-114 0 -189.5 -73.5t-75.5 -186.5z
" />
    <glyph glyph-name="Icircumflex" unicode="&#x41e;" horiz-adv-x="823" 
d="M45 341q0 146 100 246q104 104 266 104q165 0 268 -103q99 -99 99 -247q0 -144 -98 -244q-104 -106 -271 -106q-163 0 -266 105q-98 100 -98 245zM146 341q0 -112 75 -186t190 -74q114 0 190 74t76 186q0 113 -75.5 186.5t-190.5 73.5q-114 0 -189.5 -73.5t-75.5 -186.5z
" />
    <glyph glyph-name="Idieresis" unicode="&#xcf;" horiz-adv-x="729" 
d="M653 682v-682h-98v594h-382v-594h-98v682h578z" />
    <glyph glyph-name="Idieresis" unicode="&#x41f;" horiz-adv-x="729" 
d="M653 682v-682h-98v594h-382v-594h-98v682h578z" />
    <glyph glyph-name="Eth" unicode="&#xd0;" horiz-adv-x="510" 
d="M70 682h213q107 0 164 -57q53 -53 53 -139t-55 -136q-60 -55 -175 -55h-102v-295h-98v682zM168 594v-211h111q55 0 87.5 28.5t32.5 78.5q0 44 -24 71q-30 33 -92 33h-115z" />
    <glyph glyph-name="Eth" unicode="&#x420;" horiz-adv-x="510" 
d="M70 682h213q107 0 164 -57q53 -53 53 -139t-55 -136q-60 -55 -175 -55h-102v-295h-98v682zM168 594v-211h111q55 0 87.5 28.5t32.5 78.5q0 44 -24 71q-30 33 -92 33h-115z" />
    <glyph glyph-name="Ntilde" unicode="&#xd1;" horiz-adv-x="708" 
d="M656 635v-105q-122 71 -235 71q-117 0 -194.5 -74.5t-77.5 -186.5q0 -115 76 -187t200 -72q119 0 238 77v-107q-56 -29 -114 -44.5t-133 -15.5q-176 0 -280 116q-88 99 -88 224q0 157 105.5 258.5t268.5 101.5q100 0 234 -56z" />
    <glyph glyph-name="Ntilde" unicode="&#x421;" horiz-adv-x="708" 
d="M656 635v-105q-122 71 -235 71q-117 0 -194.5 -74.5t-77.5 -186.5q0 -115 76 -187t200 -72q119 0 238 77v-107q-56 -29 -114 -44.5t-133 -15.5q-176 0 -280 116q-88 99 -88 224q0 157 105.5 258.5t268.5 101.5q100 0 234 -56z" />
    <glyph glyph-name="Ograve" unicode="&#xd2;" horiz-adv-x="604" 
d="M587 682v-88h-236v-594h-98v594h-236v88h570z" />
    <glyph glyph-name="Ograve" unicode="&#x422;" horiz-adv-x="604" 
d="M587 682v-88h-236v-594h-98v594h-236v88h570z" />
    <glyph glyph-name="Oacute" unicode="&#xd3;" horiz-adv-x="594" 
d="M101 682l202 -376l182 376h97l-337 -682h-95l107 212l-257 470h101z" />
    <glyph glyph-name="Oacute" unicode="&#x423;" horiz-adv-x="594" 
d="M101 682l202 -376l182 376h97l-337 -682h-95l107 212l-257 470h101z" />
    <glyph glyph-name="Ocircumflex" unicode="&#xd4;" horiz-adv-x="769" 
d="M337 682h98v-73h33q115 0 196.5 -74t81.5 -191t-81.5 -191.5t-196.5 -74.5h-33v-78h-98v78h-33q-115 0 -195 73q-83 76 -83 193q0 116 81.5 190.5t196.5 74.5h33v73zM435 521v-354h35q67 0 119 49q56 52 56 127q0 77 -54 127.5t-123 50.5h-33zM337 167v354h-33
q-68 0 -122.5 -50.5t-54.5 -127.5q0 -74 56 -127q52 -49 119 -49h35z" />
    <glyph glyph-name="Ocircumflex" unicode="&#x424;" horiz-adv-x="769" 
d="M337 682h98v-73h33q115 0 196.5 -74t81.5 -191t-81.5 -191.5t-196.5 -74.5h-33v-78h-98v78h-33q-115 0 -195 73q-83 76 -83 193q0 116 81.5 190.5t196.5 74.5h33v73zM435 521v-354h35q67 0 119 49q56 52 56 127q0 77 -54 127.5t-123 50.5h-33zM337 167v354h-33
q-68 0 -122.5 -50.5t-54.5 -127.5q0 -74 56 -127q52 -49 119 -49h35z" />
    <glyph glyph-name="Otilde" unicode="&#xd5;" horiz-adv-x="708" 
d="M687 682l-272 -329l291 -353h-118l-232 282l-235 -282h-119l294 353l-273 329h119l214 -260l213 260h118z" />
    <glyph glyph-name="Otilde" unicode="&#x425;" horiz-adv-x="708" 
d="M687 682l-272 -329l291 -353h-118l-232 282l-235 -282h-119l294 353l-273 329h119l214 -260l213 260h118z" />
    <glyph glyph-name="Odieresis" unicode="&#xd6;" horiz-adv-x="745" 
d="M173 682v-594h382v594h98v-594h77v-275h-88v187h-567v682h98z" />
    <glyph glyph-name="Odieresis" unicode="&#x426;" horiz-adv-x="745" 
d="M173 682v-594h382v594h98v-594h77v-275h-88v187h-567v682h98z" />
    <glyph glyph-name="multiply" unicode="&#xd7;" horiz-adv-x="648" 
d="M483 682h98v-682h-98v291q-66 -9 -78 -10q-42 -5 -69 -5q-141 0 -202 64q-51 54 -51 157v185h98v-190q0 -67 41 -98t135 -31q51 0 126 13v306z" />
    <glyph glyph-name="multiply" unicode="&#x427;" horiz-adv-x="648" 
d="M483 682h98v-682h-98v291q-66 -9 -78 -10q-42 -5 -69 -5q-141 0 -202 64q-51 54 -51 157v185h98v-190q0 -67 41 -98t135 -31q51 0 126 13v306z" />
    <glyph glyph-name="Oslash" unicode="&#xd8;" horiz-adv-x="1015" 
d="M941 682v-682h-866v682h98v-594h286v594h98v-594h286v594h98z" />
    <glyph glyph-name="Oslash" unicode="&#x428;" horiz-adv-x="1015" 
d="M941 682v-682h-866v682h98v-594h286v594h98v-594h286v594h98z" />
    <glyph glyph-name="Ugrave" unicode="&#xd9;" horiz-adv-x="1031" 
d="M557 682v-594h286v594h98v-594h77v-275h-88v187h-855v682h98v-594h286v594h98z" />
    <glyph glyph-name="Ugrave" unicode="&#x429;" horiz-adv-x="1031" 
d="M557 682v-594h286v594h98v-594h77v-275h-88v187h-855v682h98v-594h286v594h98z" />
    <glyph glyph-name="Uacute" unicode="&#xda;" horiz-adv-x="625" 
d="M368 0h-232v594h-142v88h240v-291h121q112 0 175 -57q58 -53 58 -138t-54 -138q-59 -58 -166 -58zM234 303v-215h136q60 0 90 33q25 28 25 70q0 52 -34 82t-90 30h-127z" />
    <glyph glyph-name="Uacute" unicode="&#x42a;" horiz-adv-x="625" 
d="M368 0h-232v594h-142v88h240v-291h121q112 0 175 -57q58 -53 58 -138t-54 -138q-59 -58 -166 -58zM234 303v-215h136q60 0 90 33q25 28 25 70q0 52 -34 82t-90 30h-127z" />
    <glyph glyph-name="Ucircumflex" unicode="&#xdb;" horiz-adv-x="807" 
d="M302 0h-232v682h98v-291h121q112 0 175 -57q58 -53 58 -138t-54 -138q-59 -58 -166 -58zM168 303v-215h136q60 0 90 33q25 28 25 70q0 52 -34 82t-90 30h-127zM729 682v-682h-98v682h98z" />
    <glyph glyph-name="Ucircumflex" unicode="&#x42b;" horiz-adv-x="807" 
d="M302 0h-232v682h98v-291h121q112 0 175 -57q58 -53 58 -138t-54 -138q-59 -58 -166 -58zM168 303v-215h136q60 0 90 33q25 28 25 70q0 52 -34 82t-90 30h-127zM729 682v-682h-98v682h98z" />
    <glyph glyph-name="Udieresis" unicode="&#xdc;" horiz-adv-x="563" 
d="M306 0h-232v682h98v-291h121q112 0 175 -57q58 -53 58 -138t-54 -138q-59 -58 -166 -58zM172 303v-215h136q60 0 90 33q25 28 25 70q0 52 -34 82t-90 30h-127z" />
    <glyph glyph-name="Udieresis" unicode="&#x42c;" horiz-adv-x="563" 
d="M306 0h-232v682h98v-291h121q112 0 175 -57q58 -53 58 -138t-54 -138q-59 -58 -166 -58zM172 303v-215h136q60 0 90 33q25 28 25 70q0 52 -34 82t-90 30h-127z" />
    <glyph glyph-name="Yacute" unicode="&#xdd;" horiz-adv-x="708" 
d="M54 635v-105q122 71 235 71q104 0 177.5 -59t90.5 -154h-357v-88h358q-14 -98 -88 -158.5t-185 -60.5q-119 0 -238 77v-107q56 -29 114 -44.5t133 -15.5q176 0 280 116q88 99 88 224q0 157 -105.5 258.5t-268.5 101.5q-100 0 -234 -56z" />
    <glyph glyph-name="Yacute" unicode="&#x42d;" horiz-adv-x="708" 
d="M54 635v-105q122 71 235 71q104 0 177.5 -59t90.5 -154h-357v-88h358q-14 -98 -88 -158.5t-185 -60.5q-119 0 -238 77v-107q56 -29 114 -44.5t133 -15.5q176 0 280 116q88 99 88 224q0 157 -105.5 258.5t-268.5 101.5q-100 0 -234 -56z" />
    <glyph glyph-name="Thorn" unicode="&#xde;" horiz-adv-x="1031" 
d="M256 386q16 132 112 218q101 90 252 90q166 0 270 -104q100 -100 100 -249q0 -145 -98 -245q-104 -106 -273 -106q-151 0 -251 91q-95 86 -110 217h-87v-298h-98v682h98v-296h85zM620 604q-114 0 -190 -75t-76 -188t75 -187t191 -74t191.5 73.5t75.5 187.5t-75.5 188.5
t-191.5 74.5z" />
    <glyph glyph-name="Thorn" unicode="&#x42e;" horiz-adv-x="1031" 
d="M256 386q16 132 112 218q101 90 252 90q166 0 270 -104q100 -100 100 -249q0 -145 -98 -245q-104 -106 -273 -106q-151 0 -251 91q-95 86 -110 217h-87v-298h-98v682h98v-296h85zM620 604q-114 0 -190 -75t-76 -188t75 -187t191 -74t191.5 73.5t75.5 187.5t-75.5 188.5
t-191.5 74.5z" />
    <glyph glyph-name="germandbls" unicode="&#xdf;" horiz-adv-x="652" 
d="M554 682h-206q-105 0 -164.5 -49.5t-59.5 -137.5q0 -73 43 -120q29 -32 78 -52q-37 -35 -65 -85q-23 -44 -37 -71l-84 -167h112l77 156q37 76 61 102q34 38 86 38h61v-296h98v682zM456 598v-214h-97q-73 0 -106 34q-28 28 -28 77t32.5 76t101.5 27h97z" />
    <glyph glyph-name="germandbls" unicode="&#x42f;" horiz-adv-x="652" 
d="M554 682h-206q-105 0 -164.5 -49.5t-59.5 -137.5q0 -73 43 -120q29 -32 78 -52q-37 -35 -65 -85q-23 -44 -37 -71l-84 -167h112l77 156q37 76 61 102q34 38 86 38h61v-296h98v682zM456 598v-214h-97q-73 0 -106 34q-28 28 -28 77t32.5 76t101.5 27h97z" />
    <glyph glyph-name="agrave" unicode="&#xe0;" horiz-adv-x="427" 
d="M411 80v-54q-29 -19 -48 -27t-38 -8q-56 0 -68 46q-58 -46 -121 -46q-48 0 -79 32t-31 78q0 58 49 94q29 21 104 48l79 28v24q0 79 -81 79q-39 0 -74 -17.5t-68 -56.5v97q52 61 149 61q73 0 116 -35q47 -39 47 -113v-231q0 -23 17 -23q15 0 47 24zM258 91v131
q-71 -24 -99 -42q-43 -27 -43 -63q0 -27 18 -45t46 -18q19 0 39.5 10t38.5 27z" />
    <glyph glyph-name="agrave" unicode="&#x430;" horiz-adv-x="427" 
d="M411 80v-54q-29 -19 -48 -27t-38 -8q-56 0 -68 46q-58 -46 -121 -46q-48 0 -79 32t-31 78q0 58 49 94q29 21 104 48l79 28v24q0 79 -81 79q-39 0 -74 -17.5t-68 -56.5v97q52 61 149 61q73 0 116 -35q47 -39 47 -113v-231q0 -23 17 -23q15 0 47 24zM258 91v131
q-71 -24 -99 -42q-43 -27 -43 -63q0 -27 18 -45t46 -18q19 0 39.5 10t38.5 27z" />
    <glyph glyph-name="aacute" unicode="&#xe1;" horiz-adv-x="552" 
d="M34 279q0 -139 69 -216q65 -72 173 -72t174 65t66 173q0 101 -67 165t-167 64q-52 0 -95 -23t-70 -64q0 109 47.5 166t129.5 57q24 0 57 -5t50 -5q33 0 71 16v78q-11 -8 -29.5 -11t-41.5 -3q-17 0 -36 3q-45 7 -71 7q-60 0 -113 -28.5t-81 -73.5q-35 -53 -50.5 -124
t-15.5 -169zM127 229q0 65 41 107t104 42q67 0 110 -42t43 -108q0 -72 -39.5 -114.5t-105.5 -42.5q-69 0 -111 46t-42 112z" />
    <glyph glyph-name="aacute" unicode="&#x431;" horiz-adv-x="552" 
d="M34 279q0 -139 69 -216q65 -72 173 -72t174 65t66 173q0 101 -67 165t-167 64q-52 0 -95 -23t-70 -64q0 109 47.5 166t129.5 57q24 0 57 -5t50 -5q33 0 71 16v78q-11 -8 -29.5 -11t-41.5 -3q-17 0 -36 3q-45 7 -71 7q-60 0 -113 -28.5t-81 -73.5q-35 -53 -50.5 -124
t-15.5 -169zM127 229q0 65 41 107t104 42q67 0 110 -42t43 -108q0 -72 -39.5 -114.5t-105.5 -42.5q-69 0 -111 46t-42 112z" />
    <glyph glyph-name="acircumflex" unicode="&#xe2;" horiz-adv-x="420" 
d="M46 0v449h161q67 0 110.5 -29.5t43.5 -77.5q0 -37 -21 -63t-60 -34q59 -13 88 -46t29 -82q0 -51 -46 -84t-110 -33h-195zM135 373v-110h72q27 0 45 15t18 41q0 24 -18 39t-46 15h-71zM135 195v-119h85q86 0 86 62q0 57 -86 57h-85z" />
    <glyph glyph-name="acircumflex" unicode="&#x432;" horiz-adv-x="420" 
d="M46 0v449h161q67 0 110.5 -29.5t43.5 -77.5q0 -37 -21 -63t-60 -34q59 -13 88 -46t29 -82q0 -51 -46 -84t-110 -33h-195zM135 373v-110h72q27 0 45 15t18 41q0 24 -18 39t-46 15h-71zM135 195v-119h85q86 0 86 62q0 57 -86 57h-85z" />
    <glyph glyph-name="atilde" unicode="&#xe3;" horiz-adv-x="344" 
d="M47 0v449h297v-80h-208v-369h-89z" />
    <glyph glyph-name="atilde" unicode="&#x433;" horiz-adv-x="344" 
d="M47 0v449h297v-80h-208v-369h-89z" />
    <glyph glyph-name="adieresis" unicode="&#xe4;" horiz-adv-x="541" 
d="M53 77q47 50 76.5 124.5t29.5 159.5v88h310v-372h57v-224h-80v147h-348v-147h-80v224h35zM380 371h-147v-45q0 -68 -25 -135.5t-63 -113.5h235v294z" />
    <glyph glyph-name="adieresis" unicode="&#x434;" horiz-adv-x="541" 
d="M53 77q47 50 76.5 124.5t29.5 159.5v88h310v-372h57v-224h-80v147h-348v-147h-80v224h35zM380 371h-147v-45q0 -68 -25 -135.5t-63 -113.5h235v294z" />
    <glyph glyph-name="aring" unicode="&#xe5;" horiz-adv-x="479" 
d="M438 130v-86q-42 -28 -82.5 -40.5t-96.5 -12.5q-100 0 -161 73q-57 68 -57 166q0 102 58 165t152 63q91 0 143 -62.5t52 -184.5h-316q21 -135 151 -135q39 0 77.5 13.5t79.5 40.5zM132 270h226q0 50 -28.5 80.5t-76.5 30.5q-102 0 -121 -111z" />
    <glyph glyph-name="aring" unicode="&#x435;" horiz-adv-x="479" 
d="M438 130v-86q-42 -28 -82.5 -40.5t-96.5 -12.5q-100 0 -161 73q-57 68 -57 166q0 102 58 165t152 63q91 0 143 -62.5t52 -184.5h-316q21 -135 151 -135q39 0 77.5 13.5t79.5 40.5zM132 270h226q0 50 -28.5 80.5t-76.5 30.5q-102 0 -121 -111z" />
    <glyph glyph-name="ae" unicode="&#xe6;" horiz-adv-x="658" 
d="M372 276h11q22 0 39.5 17.5t32.5 59.5q23 62 53 83.5t70 21.5q13 0 24 -2.5t25 -7.5v-77q-7 5 -9 6q-12 6 -28 6q-41 0 -60 -52q-13 -35 -25 -54q-15 -23 -35 -36q25 -6 46 -28q16 -17 41 -57l98 -156h-95l-73 115q-33 51 -52 68.5t-45 17.5h-18v-201h-89v201h-18
q-26 0 -45 -17t-52 -69l-73 -115h-95l98 156q24 40 41 57q21 22 46 28q-34 21 -60 90q-19 52 -60 52q-14 0 -21 -3t-16 -9v77q14 5 24 7.5t25 2.5q40 0 67 -19q33 -23 56 -86q16 -43 32 -60t40 -17h11v173h89v-173z" />
    <glyph glyph-name="ae" unicode="&#x436;" horiz-adv-x="658" 
d="M372 276h11q22 0 39.5 17.5t32.5 59.5q23 62 53 83.5t70 21.5q13 0 24 -2.5t25 -7.5v-77q-7 5 -9 6q-12 6 -28 6q-41 0 -60 -52q-13 -35 -25 -54q-15 -23 -35 -36q25 -6 46 -28q16 -17 41 -57l98 -156h-95l-73 115q-33 51 -52 68.5t-45 17.5h-18v-201h-89v201h-18
q-26 0 -45 -17t-52 -69l-73 -115h-95l98 156q24 40 41 57q21 22 46 28q-34 21 -60 90q-19 52 -60 52q-14 0 -21 -3t-16 -9v77q14 5 24 7.5t25 2.5q40 0 67 -19q33 -23 56 -86q16 -43 32 -60t40 -17h11v173h89v-173z" />
    <glyph glyph-name="ccedilla" unicode="&#xe7;" horiz-adv-x="387" 
d="M120 195v68h51q35 0 56.5 15t21.5 45q0 28 -20.5 43t-67.5 15q-30 0 -64 -12q-21 -7 -59 -27v80q27 15 62.5 25.5t71.5 10.5q68 0 114 -29q52 -33 52 -93q0 -39 -23 -62t-66 -36q50 -10 78 -36q34 -31 34 -79q0 -62 -48 -97t-141 -35q-83 0 -148 33v82q40 -20 72.5 -28.5
t68.5 -8.5q49 0 77 15t28 46q0 65 -84 65h-66z" />
    <glyph glyph-name="ccedilla" unicode="&#x437;" horiz-adv-x="387" 
d="M120 195v68h51q35 0 56.5 15t21.5 45q0 28 -20.5 43t-67.5 15q-30 0 -64 -12q-21 -7 -59 -27v80q27 15 62.5 25.5t71.5 10.5q68 0 114 -29q52 -33 52 -93q0 -39 -23 -62t-66 -36q50 -10 78 -36q34 -31 34 -79q0 -62 -48 -97t-141 -35q-83 0 -148 33v82q40 -20 72.5 -28.5
t68.5 -8.5q49 0 77 15t28 46q0 65 -84 65h-66z" />
    <glyph glyph-name="egrave" unicode="&#xe8;" horiz-adv-x="477" 
d="M131 449v-309l222 309h80v-449h-86v309l-222 -309h-80v449h86z" />
    <glyph glyph-name="egrave" unicode="&#x438;" horiz-adv-x="477" 
d="M131 449v-309l222 309h80v-449h-86v309l-222 -309h-80v449h86z" />
    <glyph glyph-name="eacute" unicode="&#xe9;" horiz-adv-x="477" 
d="M131 449v-309l222 309h80v-449h-86v309l-222 -309h-80v449h86zM312 613h68q-23 -129 -140 -129q-120 0 -143 129h67q15 -62 77 -62q57 0 71 62z" />
    <glyph glyph-name="eacute" unicode="&#x439;" horiz-adv-x="477" 
d="M131 449v-309l222 309h80v-449h-86v309l-222 -309h-80v449h86zM312 613h68q-23 -129 -140 -129q-120 0 -143 129h67q15 -62 77 -62q57 0 71 62z" />
    <glyph glyph-name="ecircumflex" unicode="&#xea;" horiz-adv-x="434" 
d="M138 276h21q22 0 39.5 17.5t32.5 59.5q23 62 53 83.5t70 21.5q13 0 24 -2.5t25 -7.5v-77q-7 5 -9 6q-12 6 -28 6q-41 0 -60 -52q-13 -35 -25 -54q-15 -23 -35 -36q25 -6 46 -28q16 -17 41 -57l98 -156h-95l-73 115q-33 51 -52 68.5t-45 17.5h-28v-201h-89v449h89v-173z
" />
    <glyph glyph-name="ecircumflex" unicode="&#x43a;" horiz-adv-x="434" 
d="M138 276h21q22 0 39.5 17.5t32.5 59.5q23 62 53 83.5t70 21.5q13 0 24 -2.5t25 -7.5v-77q-7 5 -9 6q-12 6 -28 6q-41 0 -60 -52q-13 -35 -25 -54q-15 -23 -35 -36q25 -6 46 -28q16 -17 41 -57l98 -156h-95l-73 115q-33 51 -52 68.5t-45 17.5h-28v-201h-89v449h89v-173z
" />
    <glyph glyph-name="edieresis" unicode="&#xeb;" horiz-adv-x="494" 
d="M111 449h335v-449h-89v369h-159v-123q0 -118 -36 -183.5t-106 -65.5l-30 3l-15 72h23q38 0 57.5 41.5t19.5 136.5v199z" />
    <glyph glyph-name="edieresis" unicode="&#x43b;" horiz-adv-x="494" 
d="M111 449h335v-449h-89v369h-159v-123q0 -118 -36 -183.5t-106 -65.5l-30 3l-15 72h23q38 0 57.5 41.5t19.5 136.5v199z" />
    <glyph glyph-name="igrave" unicode="&#xec;" horiz-adv-x="534" 
d="M412 449h71v-449h-87v310l-128 -148h-6l-128 148v-310h-87v449h71l147 -171z" />
    <glyph glyph-name="igrave" unicode="&#x43c;" horiz-adv-x="534" 
d="M412 449h71v-449h-87v310l-128 -148h-6l-128 148v-310h-87v449h71l147 -171z" />
    <glyph glyph-name="iacute" unicode="&#xed;" horiz-adv-x="465" 
d="M132 200v-200h-89v449h89v-169h200v169h89v-449h-89v200h-200z" />
    <glyph glyph-name="iacute" unicode="&#x43d;" horiz-adv-x="465" 
d="M132 200v-200h-89v449h89v-169h200v169h89v-449h-89v200h-200z" />
    <glyph glyph-name="icircumflex" unicode="&#xee;" horiz-adv-x="552" 
d="M273 458q106 0 174.5 -64.5t68.5 -164.5q0 -106 -67 -172t-176 -66q-103 0 -170 67t-67 171q0 97 68 163t169 66zM272 378q-63 0 -104 -42t-41 -107q0 -72 40 -115t105 -43q71 0 112 42t41 115q0 66 -43 108t-110 42z" />
    <glyph glyph-name="icircumflex" unicode="&#x43e;" horiz-adv-x="552" 
d="M273 458q106 0 174.5 -64.5t68.5 -164.5q0 -106 -67 -172t-176 -66q-103 0 -170 67t-67 171q0 97 68 163t169 66zM272 378q-63 0 -104 -42t-41 -107q0 -72 40 -115t105 -43q71 0 112 42t41 115q0 66 -43 108t-110 42z" />
    <glyph glyph-name="idieresis" unicode="&#xef;" horiz-adv-x="465" 
d="M132 0h-89v449h378v-449h-89v369h-200v-369z" />
    <glyph glyph-name="idieresis" unicode="&#x43f;" horiz-adv-x="465" 
d="M132 0h-89v449h378v-449h-89v369h-200v-369z" />
    <glyph glyph-name="eth" unicode="&#xf0;" 
d="M146 11v-241h-89v679h154q123 0 188 -58t65 -170q0 -101 -63.5 -165.5t-164.5 -64.5q-41 0 -90 20zM146 369v-278q42 -20 84 -20q62 0 102.5 42.5t40.5 108.5q0 147 -146 147h-81z" />
    <glyph glyph-name="eth" unicode="&#x440;" 
d="M146 11v-241h-89v679h154q123 0 188 -58t65 -170q0 -101 -63.5 -165.5t-164.5 -64.5q-41 0 -90 20zM146 369v-278q42 -20 84 -20q62 0 102.5 42.5t40.5 108.5q0 147 -146 147h-81z" />
    <glyph glyph-name="ntilde" unicode="&#xf1;" horiz-adv-x="438" 
d="M393 427v-95q-38 25 -65 34.5t-59 9.5q-61 0 -99 -42t-38 -110q0 -69 41 -109t111 -40q51 0 119 30v-88q-22 -10 -60.5 -18t-73.5 -8q-100 0 -164 63t-64 162q0 111 60.5 176.5t161.5 65.5q37 0 64.5 -7t65.5 -24z" />
    <glyph glyph-name="ntilde" unicode="&#x441;" horiz-adv-x="438" 
d="M393 427v-95q-38 25 -65 34.5t-59 9.5q-61 0 -99 -42t-38 -110q0 -69 41 -109t111 -40q51 0 119 30v-88q-22 -10 -60.5 -18t-73.5 -8q-100 0 -164 63t-64 162q0 111 60.5 176.5t161.5 65.5q37 0 64.5 -7t65.5 -24z" />
    <glyph glyph-name="ograve" unicode="&#xf2;" horiz-adv-x="385" 
d="M6 449h368v-80h-140v-369h-89v369h-139v80z" />
    <glyph glyph-name="ograve" unicode="&#x442;" horiz-adv-x="385" 
d="M6 449h368v-80h-140v-369h-89v369h-139v80z" />
    <glyph glyph-name="oacute" unicode="&#xf3;" horiz-adv-x="438" 
d="M438 449l-318 -679h-99l153 326l-174 353h101l121 -253l116 253h100z" />
    <glyph glyph-name="oacute" unicode="&#x443;" horiz-adv-x="438" 
d="M438 449l-318 -679h-99l153 326l-174 353h101l121 -253l116 253h100z" />
    <glyph glyph-name="ocircumflex" unicode="&#xf4;" horiz-adv-x="704" 
d="M397 682h-89v-227l-45 3q-102 0 -162 -65t-60 -177q0 -100 63.5 -162.5t164.5 -62.5h14q9 0 25 2v-223h89v223q10 -1 19.5 -1.5t19.5 -0.5q100 0 164 63t64 162q0 111 -60.5 176.5t-161.5 65.5l-45 -3v227zM132 224q0 72 35 115.5t102 43.5h16t23 -4v-312l-24 -1
q-68 0 -110 44t-42 114zM573 224q0 -71 -41.5 -114.5t-110.5 -43.5l-24 1v312q17 4 39 4q65 0 101 -44t36 -115z" />
    <glyph glyph-name="ocircumflex" unicode="&#x444;" horiz-adv-x="704" 
d="M397 682h-89v-227l-45 3q-102 0 -162 -65t-60 -177q0 -100 63.5 -162.5t164.5 -62.5h14q9 0 25 2v-223h89v223q10 -1 19.5 -1.5t19.5 -0.5q100 0 164 63t64 162q0 111 -60.5 176.5t-161.5 65.5l-45 -3v227zM132 224q0 72 35 115.5t102 43.5h16t23 -4v-312l-24 -1
q-68 0 -110 44t-42 114zM573 224q0 -71 -41.5 -114.5t-110.5 -43.5l-24 1v312q17 4 39 4q65 0 101 -44t36 -115z" />
    <glyph glyph-name="otilde" unicode="&#xf5;" 
d="M487 449l-185 -221l198 -228h-114l-141 161l-133 -161h-112l189 228l-189 221h112l133 -154l128 154h114z" />
    <glyph glyph-name="otilde" unicode="&#x445;" 
d="M487 449l-185 -221l198 -228h-114l-141 161l-133 -161h-112l189 228l-189 221h112l133 -154l128 154h114z" />
    <glyph glyph-name="odieresis" unicode="&#xf6;" horiz-adv-x="495" 
d="M132 80h200v369h89v-369h57v-227h-80v147h-355v449h89v-369z" />
    <glyph glyph-name="odieresis" unicode="&#x446;" horiz-adv-x="495" 
d="M132 80h200v369h89v-369h57v-227h-80v147h-355v449h89v-369z" />
    <glyph glyph-name="divide" unicode="&#xf7;" horiz-adv-x="471" 
d="M426 0h-89v200q-35 -10 -63 -15t-63 -5q-67 0 -111.5 41.5t-44.5 103.5v124h89v-101q0 -90 93 -90q40 0 56 3t44 15v173h89v-449z" />
    <glyph glyph-name="divide" unicode="&#x447;" horiz-adv-x="471" 
d="M426 0h-89v200q-35 -10 -63 -15t-63 -5q-67 0 -111.5 41.5t-44.5 103.5v124h89v-101q0 -90 93 -90q40 0 56 3t44 15v173h89v-449z" />
    <glyph glyph-name="oslash" unicode="&#xf8;" horiz-adv-x="739" 
d="M680 0h-621v449h89v-369h177v369h89v-369h177v369h89v-449z" />
    <glyph glyph-name="oslash" unicode="&#x448;" horiz-adv-x="739" 
d="M680 0h-621v449h89v-369h177v369h89v-369h177v369h89v-449z" />
    <glyph glyph-name="ugrave" unicode="&#xf9;" horiz-adv-x="757" 
d="M657 0h-598v449h89v-369h177v369h89v-369h177v369h89v-369h57v-227h-80v147z" />
    <glyph glyph-name="ugrave" unicode="&#x449;" horiz-adv-x="757" 
d="M657 0h-598v449h89v-369h177v369h89v-369h177v369h89v-369h57v-227h-80v147z" />
    <glyph glyph-name="uacute" unicode="&#xfa;" horiz-adv-x="483" 
d="M188 75h91q39 0 60 17t21 44q0 62 -80 62h-92v-123zM-19 449h207v-176h102q77 0 121 -42q40 -38 40 -95t-39 -94q-44 -42 -123 -42h-190v371h-118v78z" />
    <glyph glyph-name="uacute" unicode="&#x44a;" horiz-adv-x="483" 
d="M188 75h91q39 0 60 17t21 44q0 62 -80 62h-92v-123zM-19 449h207v-176h102q77 0 121 -42q40 -38 40 -95t-39 -94q-44 -42 -123 -42h-190v371h-118v78z" />
    <glyph glyph-name="ucircumflex" unicode="&#xfb;" horiz-adv-x="637" 
d="M136 75h91q39 0 60 17t21 44q0 62 -80 62h-92v-123zM47 449h89v-176h102q77 0 121 -42q40 -38 40 -95t-39 -94q-44 -42 -123 -42h-190v449zM585 449v-449h-89v449h89z" />
    <glyph glyph-name="ucircumflex" unicode="&#x44b;" horiz-adv-x="637" 
d="M136 75h91q39 0 60 17t21 44q0 62 -80 62h-92v-123zM47 449h89v-176h102q77 0 121 -42q40 -38 40 -95t-39 -94q-44 -42 -123 -42h-190v449zM585 449v-449h-89v449h89z" />
    <glyph glyph-name="udieresis" unicode="&#xfc;" horiz-adv-x="427" 
d="M136 75h91q39 0 60 17t21 44q0 62 -80 62h-92v-123zM47 449h89v-176h102q77 0 121 -42q40 -38 40 -95t-39 -94q-44 -42 -123 -42h-190v449z" />
    <glyph glyph-name="udieresis" unicode="&#x44c;" horiz-adv-x="427" 
d="M136 75h91q39 0 60 17t21 44q0 62 -80 62h-92v-123zM47 449h89v-176h102q77 0 121 -42q40 -38 40 -95t-39 -94q-44 -42 -123 -42h-190v449z" />
    <glyph glyph-name="yacute" unicode="&#xfd;" horiz-adv-x="438" 
d="M51 427v-95q38 25 65 34.5t59 9.5q50 0 86.5 -26.5t43.5 -73.5h-193v-76h195q0 -58 -41 -91.5t-106 -33.5q-51 0 -119 30v-88q22 -10 60.5 -18t73.5 -8q100 0 164 65t64 164q0 110 -60 174t-162 64q-37 0 -64.5 -7t-65.5 -24z" />
    <glyph glyph-name="yacute" unicode="&#x44d;" horiz-adv-x="438" 
d="M51 427v-95q38 25 65 34.5t59 9.5q50 0 86.5 -26.5t43.5 -73.5h-193v-76h195q0 -58 -41 -91.5t-106 -33.5q-51 0 -119 30v-88q22 -10 60.5 -18t73.5 -8q100 0 164 65t64 164q0 110 -60 174t-162 64q-37 0 -64.5 -7t-65.5 -24z" />
    <glyph glyph-name="thorn" unicode="&#xfe;" horiz-adv-x="737" 
d="M236 278q17 79 81.5 129.5t150.5 50.5q106 0 174.5 -64.5t68.5 -164.5q0 -106 -67 -172t-176 -66q-96 0 -160.5 58t-74.5 151h-99v-200h-89v449h89v-171h102zM467 378q-63 0 -104 -42t-41 -107q0 -72 40 -115t105 -43q71 0 112 42t41 115q0 66 -43 108t-110 42z" />
    <glyph glyph-name="thorn" unicode="&#x44e;" horiz-adv-x="737" 
d="M236 278q17 79 81.5 129.5t150.5 50.5q106 0 174.5 -64.5t68.5 -164.5q0 -106 -67 -172t-176 -66q-96 0 -160.5 58t-74.5 151h-99v-200h-89v449h89v-171h102zM467 378q-63 0 -104 -42t-41 -107q0 -72 40 -115t105 -43q71 0 112 42t41 115q0 66 -43 108t-110 42z" />
    <glyph glyph-name="ydieresis" unicode="&#xff;" horiz-adv-x="433" 
d="M381 449v-449h-89v187h-39q-31 0 -55 -23q-19 -18 -39 -58l-54 -106h-91l38 76q35 70 38 75q23 39 51 56q-37 13 -58 41q-24 32 -24 76q0 55 43 90t120 35h159zM292 373h-60q-43 0 -62.5 -14.5t-19.5 -43.5q0 -28 20.5 -44t67.5 -16h54v118z" />
    <glyph glyph-name="ydieresis" unicode="&#x44f;" horiz-adv-x="433" 
d="M381 449v-449h-89v187h-39q-31 0 -55 -23q-19 -18 -39 -58l-54 -106h-91l38 76q35 70 38 75q23 39 51 56q-37 13 -58 41q-24 32 -24 76q0 55 43 90t120 35h159zM292 373h-60q-43 0 -62.5 -14.5t-19.5 -43.5q0 -28 20.5 -44t67.5 -16h54v118z" />
  </font>
</defs>
</svg>
